<svg xmlns="http://www.w3.org/2000/svg" xmlns:xlink="http://www.w3.org/1999/xlink" width="844.817" height="539.648" viewBox="0 0 844.817 539.648">
  <defs>
    <linearGradient id="linear-gradient" y1="0.5" x2="1" y2="0.5" gradientUnits="objectBoundingBox">
      <stop offset="0" stop-color="#761e51"/>
      <stop offset="1" stop-color="#b72a2a"/>
    </linearGradient>
    <linearGradient id="linear-gradient-2" y1="0.5" x2="1" y2="0.5" gradientUnits="objectBoundingBox">
      <stop offset="0" stop-color="#b72a7b"/>
      <stop offset="1" stop-color="#b72a2a"/>
    </linearGradient>
    <linearGradient id="linear-gradient-3" y1="0.5" x2="1" y2="0.5" gradientUnits="objectBoundingBox">
      <stop offset="0" stop-color="#7a1f53"/>
      <stop offset="1" stop-color="#b72a2a"/>
    </linearGradient>
    <linearGradient id="linear-gradient-5" x1="0.5" y1="1.141" x2="0.5" y2="-0.217" gradientUnits="objectBoundingBox">
      <stop offset="0" stop-color="#eebe63"/>
      <stop offset="1" stop-color="#dc3b57"/>
    </linearGradient>
    <linearGradient id="linear-gradient-6" y1="1.902" y2="0.131" xlink:href="#linear-gradient-5"/>
    <linearGradient id="linear-gradient-7" x1="1.256" y1="0.5" x2="-0.306" y2="0.5" xlink:href="#linear-gradient-2"/>
    <linearGradient id="linear-gradient-8" x1="0.5" y1="0.838" x2="0.5" y2="-0.055" gradientUnits="objectBoundingBox">
      <stop offset="0.005" stop-color="#595959"/>
      <stop offset="1" stop-color="#fff"/>
    </linearGradient>
    <linearGradient id="linear-gradient-9" x1="0.5" y1="1.177" x2="0.5" y2="0.059" xlink:href="#linear-gradient-8"/>
    <linearGradient id="linear-gradient-10" y1="0.5" x2="1" y2="0.5" gradientUnits="objectBoundingBox">
      <stop offset="0.005" stop-color="#b0b0b0"/>
      <stop offset="1" stop-color="#fff"/>
    </linearGradient>
    <linearGradient id="linear-gradient-12" x1="0.5" y1="0.79" x2="0.5" y2="0.052" xlink:href="#linear-gradient-8"/>
    <linearGradient id="linear-gradient-13" x1="0" y1="0.5" x2="1" y2="0.5" xlink:href="#linear-gradient-8"/>
    <linearGradient id="linear-gradient-16" x1="0.5" y1="0.854" x2="0.5" y2="-0.262" gradientUnits="objectBoundingBox">
      <stop offset="0" stop-color="#de5c5c"/>
      <stop offset="1" stop-color="#b73364"/>
    </linearGradient>
    <linearGradient id="linear-gradient-17" x1="0.5" y1="1.282" x2="0.5" y2="-0.665" xlink:href="#linear-gradient-16"/>
    <linearGradient id="linear-gradient-18" x1="0.5" y1="0.992" x2="0.5" y2="-0.209" xlink:href="#linear-gradient-10"/>
    <linearGradient id="linear-gradient-19" x1="0" y1="0.5" x2="1" y2="0.5" xlink:href="#linear-gradient-5"/>
  </defs>
  <g id="N-Home_4" data-name="N-Home – 4" transform="translate(-510.756 0)">
    <path id="N-Home_4-2" data-name="N-Home – 4" d="M3288.645,2022.667c-10.876,0-22.091-.46-34.285-1.409-10.869-.845-22.277-2.062-34.875-3.719-23.412-3.08-47.52-7.262-70.834-11.306-18.857-3.271-38.357-6.654-57.464-9.451-21.437-3.139-40.059-5.187-56.93-6.261-4.847-.309-9.879-.465-14.958-.465a328.514,328.514,0,0,0-48.083,3.887c-16.338,2.412-32.429,5.679-46.228,8.552-2.368.493-4.755.993-7.064,1.476l-.065.014c-26.884,5.63-52.276,10.948-73.864,10.948-14.5,0-26.245-2.4-35.906-7.328a59.491,59.491,0,0,1-11.4-7.657,77.554,77.554,0,0,1-10.013-10.359c-5.928-7.329-11.421-16.394-16.793-27.711-10.068-21.212-18.362-47.626-27.144-75.591-4.554-14.5-9.263-29.5-14.479-44.638-5.9-17.136-11.624-31.984-17.488-45.393-12.682-28.843-28.325-56.456-43.454-83.161-15.517-27.391-30.174-53.263-39.885-77.485-5.2-12.96-8.567-24.413-10.306-35.011a98.865,98.865,0,0,1-1.369-16.469,76.447,76.447,0,0,1,1.677-15.739,74.649,74.649,0,0,1,3.739-12.094,88.158,88.158,0,0,1,5.758-11.634,124.618,124.618,0,0,1,16.812-22c12.111-12.862,28.293-25.831,49.472-39.647h767.359v471.025c-17.264,21.987-40.576,39.037-69.288,50.677a233.071,233.071,0,0,1-43.308,12.625,299.813,299.813,0,0,1-46.745,5.1C3297.143,2022.593,3292.908,2022.667,3288.645,2022.667Z" transform="translate(-2105 -1483.019)" fill="#f7e0ad"/>
    <g id="Group_693" data-name="Group 693" transform="translate(-552.631)">
      <g id="Group_692" data-name="Group 692" transform="translate(1255.457 63.537)">
        <g id="Group_691" data-name="Group 691">
          <g id="Group_573" data-name="Group 573" transform="translate(222.155 207.455)">
            <path id="Path_870" data-name="Path 870" d="M2231.34,886.065s-21.718-59.68-71.906-43.983c0,0,42.34,6.792,64.059,42.269S2231.34,886.065,2231.34,886.065Z" transform="translate(-2126.643 -839.239)" fill="url(#linear-gradient)"/>
            <path id="Path_871" data-name="Path 871" d="M2139.9,839.17s-34.889-7.19-1.309,50.3l-17.714,2.071S2058,836.433,2139.9,839.17Z" transform="translate(-2088.086 -838.882)" fill="url(#linear-gradient-2)"/>
            <path id="Path_872" data-name="Path 872" d="M2321.458,886.065s21.718-59.68,71.906-43.983c0,0-42.341,6.792-64.059,42.269S2321.458,886.065,2321.458,886.065Z" transform="translate(-2225.298 -839.239)" fill="url(#linear-gradient-3)"/>
            <path id="Path_873" data-name="Path 873" d="M2470.057,839.17s34.888-7.19,1.308,50.3l17.715,2.071S2551.959,836.433,2470.057,839.17Z" transform="translate(-2321.013 -838.882)" fill="url(#linear-gradient-2)"/>
            <path id="Path_874" data-name="Path 874" d="M2330.916,947.492l-5.966,2.692-1.6.722s-23.482-6.6-10.305-12.252a13.156,13.156,0,0,1,8.079-1.066C2328.205,939.127,2330.916,947.492,2330.916,947.492Z" transform="translate(-2220.25 -900.495)" fill="#dc4457"/>
            <path id="Path_875" data-name="Path 875" d="M2324.95,950.184l-1.6.722s-23.482-6.6-10.305-12.252a13.156,13.156,0,0,1,8.079-1.066l.045.012S2310.844,941.134,2324.95,950.184Z" transform="translate(-2220.25 -900.495)" fill="#b72a2e"/>
            <rect id="Rectangle_132" data-name="Rectangle 132" width="182.906" height="143.666" transform="translate(6.487 43.658)" fill="url(#linear-gradient-5)"/>
            <rect id="Rectangle_133" data-name="Rectangle 133" width="195.878" height="43.133" transform="translate(0 43.658)" fill="url(#linear-gradient-6)"/>
            <rect id="Rectangle_134" data-name="Rectangle 134" width="39.349" height="143.666" transform="translate(78.265 43.658)" fill="url(#linear-gradient-7)"/>
          </g>
          <g id="Group_574" data-name="Group 574" transform="translate(370.594 278.249)">
            <path id="Path_876" data-name="Path 876" d="M2586.973,1029.659s10.452,4.815,11.743,30.183-23.86-29.693-23.86-29.693S2583.214,1028.485,2586.973,1029.659Z" transform="translate(-2535.029 -1028.791)" fill="url(#linear-gradient-8)"/>
            <path id="Path_877" data-name="Path 877" d="M2504.459,1042.2s11.129,1.805,27.878,21.494-43.538-18.519-43.538-18.519S2493.81,1042.983,2504.459,1042.2Z" transform="translate(-2481.179 -1036.902)" fill="url(#linear-gradient-9)"/>
            <path id="Path_878" data-name="Path 878" d="M2522.03,1063.436s-25.819-18.148-20.65-21.751c0,0-5.795-1.722-15.66,2.976s23.114,23.8,23.114,23.8S2521.384,1066.708,2522.03,1063.436Z" transform="translate(-2478.1 -1036.386)" fill="url(#linear-gradient-10)"/>
            <path id="Path_879" data-name="Path 879" d="M2586.278,1055.922s-14.17-23.371-9-27.012a17.252,17.252,0,0,0-16.208,2.936c-7.869,6.224,13.976,25.837,13.976,25.837Z" transform="translate(-2525.331 -1028.042)" fill="url(#linear-gradient-10)"/>
            <path id="Path_880" data-name="Path 880" d="M2646.807,1029.659s-10.453,4.815-11.744,30.183,23.861-29.693,23.861-29.693S2650.564,1028.485,2646.807,1029.659Z" transform="translate(-2572.673 -1028.791)" fill="url(#linear-gradient-12)"/>
            <path id="Path_881" data-name="Path 881" d="M2691.587,1042.2s-11.13,1.805-27.879,21.494,43.537-18.519,43.537-18.519S2702.235,1042.983,2691.587,1042.2Z" transform="translate(-2588.788 -1036.902)" fill="url(#linear-gradient-13)"/>
            <path id="Path_882" data-name="Path 882" d="M2687.937,1063.436s25.818-18.148,20.65-21.751c0,0,5.794-1.722,15.658,2.976s-23.113,23.8-23.113,23.8S2688.581,1066.708,2687.937,1063.436Z" transform="translate(-2605.789 -1036.386)" fill="url(#linear-gradient-10)"/>
            <path id="Path_883" data-name="Path 883" d="M2642.465,1055.922s14.171-23.371,9-27.012a17.25,17.25,0,0,1,16.207,2.936c7.869,6.224-13.977,25.837-13.977,25.837Z" transform="translate(-2577.335 -1028.042)" fill="url(#linear-gradient-10)"/>
            <rect id="Rectangle_135" data-name="Rectangle 135" width="116.426" height="91.448" transform="translate(4.129 25.081)" fill="url(#linear-gradient-16)"/>
            <rect id="Rectangle_136" data-name="Rectangle 136" width="124.683" height="31.731" transform="translate(0 25.081)" fill="url(#linear-gradient-17)"/>
            <rect id="Rectangle_137" data-name="Rectangle 137" width="25.047" height="91.448" transform="translate(49.819 25.081)" fill="url(#linear-gradient-18)"/>
          </g>
          <rect id="Rectangle_138" data-name="Rectangle 138" width="120.301" height="6.734" transform="translate(282.388 177.146)" fill="url(#linear-gradient-19)"/>
          <rect id="Rectangle_139" data-name="Rectangle 139" width="120.301" height="6.733" transform="translate(282.388 151.884)" fill="url(#linear-gradient-19)"/>
          <g id="Group_575" data-name="Group 575" transform="translate(95.787 121.927)">
            <path id="Rectangle_140" data-name="Rectangle 140" d="M38.936,0H176.095A38.936,38.936,0,0,1,215.03,38.936V233.543a38.936,38.936,0,0,1-38.936,38.936H38.929A38.929,38.929,0,0,1,0,233.55V38.936A38.936,38.936,0,0,1,38.936,0Z" transform="translate(215.03 272.478) rotate(180)" fill="url(#linear-gradient-19)"/>
          </g>
          <rect id="Rectangle_141" data-name="Rectangle 141" width="190.29" height="262.746" transform="translate(108.158 105.026)" fill="#e6e6e6"/>
          <path id="Path_884" data-name="Path 884" d="M1957.5,491.058v43.507h-19.022c-10.345,12.255-19.022,0-19.022,0h-19.022c-10.369,12.255-19.046,0-19.046,0h-19.022c-10.369,12.255-19.022,0-19.022,0H1824.3c-10.346,12.255-19.024,0-19.024,0h-19.021c-10.37,12.255-19.047,0-19.047,0V491.058Z" transform="translate(-1659.054 -413.779)" fill="#dd5458"/>
          <g id="Group_576" data-name="Group 576" transform="translate(127.192 77.279)">
            <path id="Path_885" data-name="Path 885" d="M1818.079,534.583s8.673,12.257,19.03,0V491.078h-19.03Z" transform="translate(-1818.079 -491.07)" fill="#ebae61"/>
            <path id="Path_886" data-name="Path 886" d="M1919.772,534.583s8.674,12.257,19.03,0V491.078h-19.03Z" transform="translate(-1881.712 -491.07)" fill="#ebae61"/>
            <path id="Path_887" data-name="Path 887" d="M2021.463,534.583s8.674,12.257,19.03,0V491.078h-19.03Z" transform="translate(-1945.345 -491.07)" fill="#ebae61"/>
            <path id="Path_888" data-name="Path 888" d="M2123.157,534.583s8.673,12.257,19.03,0V491.078h-19.03Z" transform="translate(-2008.979 -491.07)" fill="#ebae61"/>
            <path id="Path_889" data-name="Path 889" d="M2243.863,491.058v43.507c-10.344,12.255-19.022,0-19.022,0V491.058Z" transform="translate(-2072.607 -491.058)" fill="#ebae61"/>
          </g>
          <path id="Rectangle_142" data-name="Rectangle 142" d="M22.817,0H97.484A22.817,22.817,0,0,1,120.3,22.817v0A22.817,22.817,0,0,1,97.484,45.635H22.819A22.819,22.819,0,0,1,0,22.817v0A22.817,22.817,0,0,1,22.817,0Z" transform="translate(320.095 145.276)" fill="#efc25d"/>
          <g id="Group_577" data-name="Group 577" transform="translate(340.153 156.072)">
            <path id="Path_890" data-name="Path 890" d="M2397.45,723.123a9.654,9.654,0,0,1-4.232-.913,10.409,10.409,0,0,1-3.261-2.422,11.233,11.233,0,0,1-2.855-7.433,10.677,10.677,0,0,1,.792-4.068,11.235,11.235,0,0,1,2.184-3.44,10.41,10.41,0,0,1,3.3-2.378,9.819,9.819,0,0,1,4.156-.88,9.332,9.332,0,0,1,4.2.94,10.512,10.512,0,0,1,3.245,2.468,11.382,11.382,0,0,1,2.093,3.469,10.922,10.922,0,0,1,.748,3.948,10.751,10.751,0,0,1-.777,4.053,11.009,11.009,0,0,1-2.153,3.411,10.359,10.359,0,0,1-3.29,2.361A9.8,9.8,0,0,1,2397.45,723.123Zm-6.161-10.768a8.53,8.53,0,0,0,.419,2.662,7.11,7.11,0,0,0,1.212,2.274,6.021,6.021,0,0,0,1.944,1.583,6.01,6.01,0,0,0,5.263-.015,6.022,6.022,0,0,0,1.944-1.63,7.274,7.274,0,0,0,1.2-2.289,8.506,8.506,0,0,0,.4-2.586,8.29,8.29,0,0,0-.434-2.661,7.39,7.39,0,0,0-1.226-2.274,5.884,5.884,0,0,0-1.945-1.57,6.064,6.064,0,0,0-5.249.03,5.914,5.914,0,0,0-1.945,1.615,7.24,7.24,0,0,0-1.181,2.273A8.484,8.484,0,0,0,2391.289,712.355Z" transform="translate(-2387.102 -701.589)" fill="#fff"/>
            <path id="Path_891" data-name="Path 891" d="M2450.953,723.22V701.984h9a6.007,6.007,0,0,1,2.706.614,7.017,7.017,0,0,1,2.139,1.615,7.629,7.629,0,0,1,1.406,2.273,6.859,6.859,0,0,1,.508,2.557,7.458,7.458,0,0,1-1.824,4.875,6.615,6.615,0,0,1-2.094,1.585,6.049,6.049,0,0,1-2.692.6h-5.024v7.118Zm4.127-10.736h4.787a2.369,2.369,0,0,0,1.9-.928,3.841,3.841,0,0,0,.762-2.512,4.145,4.145,0,0,0-.24-1.45,3.5,3.5,0,0,0-.629-1.093,2.5,2.5,0,0,0-.912-.673,2.688,2.688,0,0,0-1.062-.225h-4.605Z" transform="translate(-2427.056 -701.836)" fill="#fff"/>
            <path id="Path_892" data-name="Path 892" d="M2515.485,719.6v3.618H2500.74V701.984h14.477V705.6h-10.349v5.115h8.943v3.35h-8.943V719.6Z" transform="translate(-2458.21 -701.836)" fill="#fff"/>
            <path id="Path_893" data-name="Path 893" d="M2552.9,709.61v13.61h-4.127V701.984h3.2l11.066,13.938V702.016h4.127v21.2h-3.349Z" transform="translate(-2488.264 -701.836)" fill="#fff"/>
          </g>
          <rect id="Rectangle_143" data-name="Rectangle 143" width="134.249" height="134.249" transform="translate(136.179 181.661)" fill="#fff" opacity="0.72"/>
          <rect id="Rectangle_144" data-name="Rectangle 144" width="81.15" height="81.15" transform="translate(46.608 155.249)" fill="#fff" opacity="0.72"/>
          <rect id="Rectangle_145" data-name="Rectangle 145" width="81.15" height="81.149" transform="translate(46.608 248.786)" fill="#fff" opacity="0.72"/>
          <g id="Group_583" data-name="Group 583" transform="translate(76.962)">
            <path id="Path_898" data-name="Path 898" d="M2088.92,304a12.123,12.123,0,0,1-4.628-.033,11.608,11.608,0,0,1-3.98-1.607,10.852,10.852,0,0,1-3-2.883,9.6,9.6,0,0,1-1.622-3.943,9.708,9.708,0,0,1,.177-4.226,10.4,10.4,0,0,1,1.827-3.736,11.932,11.932,0,0,1,3.2-2.839,12.125,12.125,0,0,1,4.333-1.62,12.259,12.259,0,0,1,4.593.04,11.872,11.872,0,0,1,4.009,1.566,10.44,10.44,0,0,1,3,2.882,9.724,9.724,0,0,1,1.616,3.909,9.615,9.615,0,0,1-.171,4.259,10.914,10.914,0,0,1-1.827,3.737,11.511,11.511,0,0,1-3.223,2.881A12.213,12.213,0,0,1,2088.92,304Zm-.818-4.618a3.849,3.849,0,0,0,1.81-.819,5.855,5.855,0,0,0,2.064-3.6,6.747,6.747,0,0,0-.016-2.307,6.192,6.192,0,0,0-2.174-3.847,4.471,4.471,0,0,0-3.745-1.079,3.882,3.882,0,0,0-1.81.819,5.953,5.953,0,0,0-2.072,3.565,6.484,6.484,0,0,0,.011,2.273,6.318,6.318,0,0,0,2.181,3.88A4.433,4.433,0,0,0,2088.1,299.382Zm-2.184,31.454,15.427-26.12L2115.1,277.97l4.863,2.98-14.88,25.595-14.3,27.271Zm34.818-2.107a12.163,12.163,0,0,1-4.627-.034,11.87,11.87,0,0,1-3.974-1.572,10.518,10.518,0,0,1-2.994-2.847,9.994,9.994,0,0,1-1.45-8.2,10.924,10.924,0,0,1,1.828-3.735,11.6,11.6,0,0,1,3.187-2.875,12.333,12.333,0,0,1,12.978.015,10.277,10.277,0,0,1,3,2.881,10.358,10.358,0,0,1,1.452,8.2,9.842,9.842,0,0,1-1.834,3.7,12.379,12.379,0,0,1-3.228,2.845A12.1,12.1,0,0,1,2120.736,328.729Zm-.818-4.619a3.872,3.872,0,0,0,1.812-.818,5.96,5.96,0,0,0,2.071-3.566,6.724,6.724,0,0,0-.832-4.509,6.819,6.819,0,0,0-1.4-1.671,4.859,4.859,0,0,0-1.77-.967,4.167,4.167,0,0,0-1.941-.118,3.875,3.875,0,0,0-1.809.817,5.909,5.909,0,0,0-1.325,1.55,5.8,5.8,0,0,0-.74,2.051,6.75,6.75,0,0,0,.017,2.306,6.175,6.175,0,0,0,2.173,3.847A4.465,4.465,0,0,0,2119.918,324.11Z" transform="translate(-2075.538 -277.97)" fill="#90c0fc"/>
          </g>
          <path id="Rectangle_146" data-name="Rectangle 146" d="M8.809,0h45.61a8.807,8.807,0,0,1,8.807,8.807v0a8.807,8.807,0,0,1-8.807,8.807H8.806A8.806,8.806,0,0,1,0,8.809v0A8.809,8.809,0,0,1,8.809,0Z" transform="translate(136.179 324.738)" fill="#fff"/>
          <path id="Rectangle_147" data-name="Rectangle 147" d="M8.806,0H45.179a8.806,8.806,0,0,1,8.806,8.806v0a8.809,8.809,0,0,1-8.809,8.809H8.808A8.808,8.808,0,0,1,0,8.806v0A8.806,8.806,0,0,1,8.806,0Z" transform="translate(216.442 324.738)" fill="#fff" opacity="0.72"/>
          <rect id="Rectangle_148" data-name="Rectangle 148" width="89.455" height="8.03" transform="translate(135.215 155.249)" fill="#fff" opacity="0.72"/>
          <rect id="Rectangle_149" data-name="Rectangle 149" width="101.925" height="8.03" transform="translate(135.215 168.23)" fill="#fff" opacity="0.72"/>
          <g id="Group_585" data-name="Group 585" transform="translate(67.664 168.23)">
            <rect id="Rectangle_150" data-name="Rectangle 150" width="39.038" height="55.189" rx="11.762" fill="#a7c5fc"/>
            <rect id="Rectangle_151" data-name="Rectangle 151" width="34.722" height="45.29" transform="translate(2.157 2.553)" fill="#fff"/>
            <path id="Path_903" data-name="Path 903" d="M1709.534,868.953a2.255,2.255,0,1,1-2.172-1.648A1.964,1.964,0,0,1,1709.534,868.953Z" transform="translate(-1687.912 -817.443)" fill="#fff" opacity="0.72"/>
          </g>
          <g id="Group_586" data-name="Group 586" transform="translate(155.349 216.908)">
            <path id="Rectangle_152" data-name="Rectangle 152" d="M12.385,0h62.7A12.389,12.389,0,0,1,87.471,12.389v47a0,0,0,0,1,0,0H0a0,0,0,0,1,0,0V12.385A12.385,12.385,0,0,1,12.385,0Z" transform="translate(4.219)" fill="#a7c5fc"/>
            <rect id="Rectangle_153" data-name="Rectangle 153" width="82.588" height="53.071" transform="translate(6.66 3.161)" fill="#fff"/>
            <path id="Rectangle_154" data-name="Rectangle 154" d="M0,0H95.908a0,0,0,0,1,0,0V0a4.364,4.364,0,0,1-4.364,4.364H4.362A4.362,4.362,0,0,1,0,0V0A0,0,0,0,1,0,0Z" transform="translate(0 59.393)" fill="#a7c5fc"/>
            <rect id="Rectangle_155" data-name="Rectangle 155" width="13.653" height="0.942" transform="translate(78.037 61.472)" fill="#747474"/>
          </g>
          <g id="Group_587" data-name="Group 587" transform="translate(72.075 261.789)">
            <path id="Path_904" data-name="Path 904" d="M1697.546,1039.1l-23.028.1a3.5,3.5,0,0,1-3.508-3.479l-.2-48.059a3.492,3.492,0,0,1,3.478-3.507l23.028-.1a3.492,3.492,0,0,1,3.508,3.478l.2,48.061A3.492,3.492,0,0,1,1697.546,1039.1Z" transform="translate(-1670.809 -984.06)" fill="#a7c5fc"/>
            <path id="Path_905" data-name="Path 905" d="M1699.479,1037.66l-18.38.077a3.266,3.266,0,0,1-3.279-3.25l-.153-36.329a3.263,3.263,0,0,1,3.252-3.277l18.381-.078a3.263,3.263,0,0,1,3.279,3.252l.153,36.328A3.266,3.266,0,0,1,1699.479,1037.66Z" transform="translate(-1675.101 -990.781)" fill="#fff"/>
            <path id="Path_906" data-name="Path 906" d="M1707.968,988.943l-6.356.027a.47.47,0,0,0-.469.472h0a.469.469,0,0,0,.472.469l6.356-.025a.471.471,0,0,0,.469-.474h0A.47.47,0,0,0,1707.968,988.943Z" transform="translate(-1689.79 -987.115)" fill="#777"/>
            <path id="Path_907" data-name="Path 907" d="M1709.705,1116.01a2.649,2.649,0,1,1-2.588-2.026A2.348,2.348,0,0,1,1709.705,1116.01Z" transform="translate(-1691.923 -1065.359)" fill="#777"/>
          </g>
          <g id="Group_588" data-name="Group 588" transform="translate(311.042 6.255)">
            <path id="Path_908" data-name="Path 908" d="M2397.505,547.016l-1.237,14.407-40.74-3.494,1.631-19,36.145,3.1.179.212,3.836,4.553Z" transform="translate(-2355.528 -538.927)" fill="#90c0fc"/>
            <path id="Path_909" data-name="Path 909" d="M2460.068,552.267l-4.558-.392.391-4.556.076.089.169.2,3.638,4.318Z" transform="translate(-2418.091 -544.179)" fill="#4d7fc7"/>
            <path id="Path_910" data-name="Path 910" d="M2408.322,561.928a4.4,4.4,0,1,1-4.008-4.76A4.4,4.4,0,0,1,2408.322,561.928Z" transform="translate(-2383.068 -550.331)" fill="#4d7fc7"/>
            <path id="Path_911" data-name="Path 911" d="M2440.791,568.595a1.859,1.859,0,1,1-1.693-2.013A1.86,1.86,0,0,1,2440.791,568.595Z" transform="translate(-2406.558 -556.227)" fill="#4d7fc7"/>
            <path id="Path_912" data-name="Path 912" d="M2375.576,563a1.86,1.86,0,1,1,1.693,2.012A1.859,1.859,0,0,1,2375.576,563Z" transform="translate(-2368.069 -552.927)" fill="#4d7fc7"/>
          </g>
          <g id="Group_589" data-name="Group 589" transform="translate(346.796 77.229)">
            <path id="Path_913" data-name="Path 913" d="M2535.492,462l6.828,12.748-36.045,19.306-9.005-16.81,31.979-17.129.266.081,5.7,1.721Z" transform="translate(-2497.27 -460.118)" fill="#90c0fc"/>
            <path id="Path_914" data-name="Path 914" d="M2589.043,462.03l-4.033,2.161-2.159-4.031.112.034.253.076,5.405,1.632Z" transform="translate(-2550.821 -460.144)" fill="#4d7fc7"/>
            <path id="Path_915" data-name="Path 915" d="M2553.231,493.518a4.4,4.4,0,1,1-5.954-1.8A4.4,4.4,0,0,1,2553.231,493.518Z" transform="translate(-2527.108 -479.564)" fill="#4d7fc7"/>
            <path id="Path_916" data-name="Path 916" d="M2582.448,484.39a1.86,1.86,0,1,1-2.517-.762A1.86,1.86,0,0,1,2582.448,484.39Z" transform="translate(-2548.38 -474.691)" fill="#4d7fc7"/>
            <path id="Path_917" data-name="Path 917" d="M2524.749,515.294a1.86,1.86,0,1,1,2.519.762A1.859,1.859,0,0,1,2524.749,515.294Z" transform="translate(-2514.327 -492.931)" fill="#4d7fc7"/>
          </g>
          <g id="Group_590" data-name="Group 590" transform="translate(365.448 27.709)">
            <path id="Path_918" data-name="Path 918" d="M2449.846,373.683l-8.7,11.553-32.667-24.594,11.47-15.236,28.982,21.819.039.277.833,5.895Z" transform="translate(-2408.482 -345.406)" fill="#90c0fc"/>
            <path id="Path_919" data-name="Path 919" d="M2512.895,410.252l-3.655-2.751,2.75-3.654.016.116.038.262.79,5.59Z" transform="translate(-2471.531 -381.975)" fill="#4d7fc7"/>
            <path id="Path_920" data-name="Path 920" d="M2462.933,393.4a4.4,4.4,0,1,1-.869-6.16A4.4,4.4,0,0,1,2462.933,393.4Z" transform="translate(-2437.603 -371.03)" fill="#4d7fc7"/>
            <path id="Path_921" data-name="Path 921" d="M2489.81,414.683a1.86,1.86,0,1,1-.369-2.6A1.862,1.862,0,0,1,2489.81,414.683Z" transform="translate(-2457.279 -386.892)" fill="#4d7fc7"/>
            <path id="Path_922" data-name="Path 922" d="M2437.519,375.315a1.859,1.859,0,1,1,.367,2.6A1.858,1.858,0,0,1,2437.519,375.315Z" transform="translate(-2426.417 -363.657)" fill="#4d7fc7"/>
          </g>
          <g id="Group_591" data-name="Group 591" transform="translate(237.116 27.362)">
            <path id="Path_923" data-name="Path 923" d="M2562.875,237.613l7.872,12.13L2536.445,272l-10.381-16,30.433-19.748.272.059,5.823,1.239Z" transform="translate(-2526.064 -236.256)" fill="#90c0fc"/>
            <path id="Path_924" data-name="Path 924" d="M2613.842,237.632,2610,240.121l-2.489-3.835.115.026.258.054,5.523,1.174Z" transform="translate(-2577.031 -236.274)" fill="#4d7fc7"/>
            <path id="Path_925" data-name="Path 925" d="M2581.384,271.368a4.4,4.4,0,1,1-6.084-1.295A4.4,4.4,0,0,1,2581.384,271.368Z" transform="translate(-2555.618 -256.973)" fill="#4d7fc7"/>
            <path id="Path_926" data-name="Path 926" d="M2609.394,260.193a1.86,1.86,0,1,1-2.573-.547A1.863,1.863,0,0,1,2609.394,260.193Z" transform="translate(-2576.067 -250.705)" fill="#4d7fc7"/>
            <path id="Path_927" data-name="Path 927" d="M2554.485,295.822a1.86,1.86,0,1,1,2.573.547A1.861,1.861,0,0,1,2554.485,295.822Z" transform="translate(-2543.661 -271.731)" fill="#4d7fc7"/>
          </g>
          <g id="Group_593" data-name="Group 593" transform="translate(291.902 215.556)">
            <g id="Group_592" data-name="Group 592">
              <path id="Path_928" data-name="Path 928" d="M2308.133,860.529H2258.18v43.834l7.625-7.627h42.327Z" transform="translate(-2258.18 -860.529)" fill="#efc25d"/>
            </g>
          </g>
          <g id="Group_630" data-name="Group 630" transform="translate(251.378 245.245)">
            <g id="Group_596" data-name="Group 596" transform="translate(12.192)">
              <g id="Group_595" data-name="Group 595">
                <g id="Group_594" data-name="Group 594">
                  <path id="Path_929" data-name="Path 929" d="M2199.438,941.3s6.6,3.228,4.964,12-2.353,9.96-.529,13.389,3.977,18.061,2.336,20.834-20.323-12.186-22.914-24.736,1.642-18.134,3.138-20.213S2193.614,938.349,2199.438,941.3Z" transform="translate(-2182.475 -939.856)" fill="#20313f"/>
                </g>
              </g>
            </g>
            <g id="Group_597" data-name="Group 597" transform="translate(30.981 33.135)">
              <path id="Path_930" data-name="Path 930" d="M2232.679,1028.391a9.178,9.178,0,0,1,5.243,3.458c1.311,1.93,1.417,6.218,1.606,7.026s2.695,9.949,2.695,9.949l-6.995,4.687Z" transform="translate(-2232.679 -1028.391)" fill="#dd5458"/>
            </g>
            <g id="Group_598" data-name="Group 598" transform="translate(47.96 179.695)">
              <path id="Path_931" data-name="Path 931" d="M2286.907,1429.737s4.563,6.143,3.938,7.117-5.426,1.113-8.347,0-2.991-8.313-4.313-11.407c-.552-1.294.632-5.118,2.3-5.4a7.02,7.02,0,0,1,3.475.538S2282.229,1424.946,2286.907,1429.737Z" transform="translate(-2278.048 -1419.993)" fill="#2c3d54"/>
            </g>
            <g id="Group_600" data-name="Group 600" transform="translate(49.336 179.606)">
              <g id="Group_599" data-name="Group 599">
                <path id="Path_932" data-name="Path 932" d="M2286.287,1420.389a29.022,29.022,0,0,1,1.311,5.116c.291,2.072,3.251,6.471,3.112,7.028s-3.9,1.06-5.425-.374-2.516-5.608-2.853-8.1a20.065,20.065,0,0,0-.709-3.472S2284.826,1418.86,2286.287,1420.389Z" transform="translate(-2281.723 -1419.757)" fill="#dba585"/>
              </g>
            </g>
            <g id="Group_601" data-name="Group 601" transform="translate(8.071 179.698)">
              <path id="Path_933" data-name="Path 933" d="M2180.488,1429.843s4.4,6.041,3.773,7.016-5.426,1.113-8.348,0-2.991-8.313-4.312-11.407c-.554-1.294.631-5.118,2.3-5.4a7.491,7.491,0,0,1,3.617.6S2175.81,1425.053,2180.488,1429.843Z" transform="translate(-2171.464 -1420.001)" fill="#2c3d54"/>
            </g>
            <g id="Group_603" data-name="Group 603" transform="translate(10.131 179.47)">
              <g id="Group_602" data-name="Group 602">
                <path id="Path_934" data-name="Path 934" d="M2180.959,1420.271a41.109,41.109,0,0,0,.9,4.868c.556,2.019,3.547,6.609,3.408,7.166s-3.894,1.059-5.425-.374-2.712-5.589-2.853-8.1a13.4,13.4,0,0,1,.349-4.154A3.4,3.4,0,0,1,2180.959,1420.271Z" transform="translate(-2176.969 -1419.392)" fill="#dba585"/>
              </g>
            </g>
            <g id="Group_605" data-name="Group 605" transform="translate(3.471 67.039)">
              <g id="Group_604" data-name="Group 604">
                <path id="Path_935" data-name="Path 935" d="M2191.808,1132.262s3.917,18.219,4.816,22.807,3.418,26.8,3.687,30.58,4.088,18.01,3.907,19.361,5.659,28.452,5.659,28.452a3.514,3.514,0,0,1-4.1.145c-1.082-.751-12.81-25.373-12.81-32.118,0-9.325-6.895-21.5-7.784-23.583-8.265-19.38-6.638-25.305-7.717-26.566s-1.173.78-1.8,3.567-1.977,26.894-2.787,29.952-.18,13.4-.63,18.618-2.424,28.814-2.424,28.814-1.53,2.4-3.676.063c-.462-.5-3.7-26.287-3.793-32.493s-.187-14.763-.36-17.448c-1.667-25.719-5.762-29.391.688-47.592C2174.761,1100.74,2191.808,1132.262,2191.808,1132.262Z" transform="translate(-2159.174 -1118.98)" fill="#dba585"/>
              </g>
            </g>
            <g id="Group_606" data-name="Group 606" transform="translate(2.25 75.227)">
              <path id="Path_936" data-name="Path 936" d="M2163.467,1140.861s-11.157,15.616-6.354,48.833c0,0,26.462,3.6,40.641-4.164,0,0-5.863-34.247-7.987-39.577S2163.467,1140.861,2163.467,1140.861Z" transform="translate(-2155.912 -1140.86)" fill="#1c1f53"/>
            </g>
            <g id="Group_607" data-name="Group 607" transform="translate(47.976 184.608)">
              <path id="Path_937" data-name="Path 937" d="M2278.089,1433.121v6.433h.835v-4.974Z" transform="translate(-2278.089 -1433.121)" fill="#2c3d54"/>
            </g>
            <g id="Group_608" data-name="Group 608" transform="translate(8.086 184.608)">
              <path id="Path_938" data-name="Path 938" d="M2171.506,1433.121v6.433h.835v-4.974Z" transform="translate(-2171.506 -1433.121)" fill="#2c3d54"/>
            </g>
            <g id="Group_609" data-name="Group 609" transform="translate(4.361 30.641)">
              <path id="Path_939" data-name="Path 939" d="M2181.969,1021.944a43,43,0,0,0,5.538,2.225c1.427.286,6.965,7.479,7.935,10.105s0,6.566-2,11.192-.115,6.165-1.028,10.79a107.339,107.339,0,0,0-1.542,16.984c.171,2.568-23.092,3.053-28.4-1.628,0,0,5.335-7.992,6.021-9.135s.114-7.363-.514-8.963-4.808-15.193-4.808-15.193-3.419-10.44-.33-12.839c2.683-2.084,10-2.826,11.309-3.283A22.376,22.376,0,0,1,2181.969,1021.944Z" transform="translate(-2161.551 -1021.728)" fill="#e6d8d1"/>
            </g>
            <g id="Group_610" data-name="Group 610" transform="translate(25.972 29.395)">
              <path id="Path_940" data-name="Path 940" d="M2219.415,1029.021l2.5-2.923-2.169-7.7A50.793,50.793,0,0,0,2219.415,1029.021Z" transform="translate(-2219.295 -1018.397)" fill="#cfc3bc"/>
            </g>
            <g id="Group_611" data-name="Group 611" transform="translate(16.962 20.487)">
              <path id="Path_941" data-name="Path 941" d="M2205,1000.222s-.112,1.03-.246,2.456c-.057.631-.121,1.34-.179,2.072a47.138,47.138,0,0,0-.223,5.467s-4.272,4.282-9.129-5a12.742,12.742,0,0,0,.505-9.035C2194.189,990.979,2205,1000.222,2205,1000.222Z" transform="translate(-2195.222 -994.596)" fill="#dba585"/>
            </g>
            <g id="Group_612" data-name="Group 612" transform="translate(21.176 36.11)">
              <path id="Path_942" data-name="Path 942" d="M2211.4,1036.34v3.908l-4.916-3.672Z" transform="translate(-2206.48 -1036.34)" fill="#dba585"/>
            </g>
            <g id="Group_613" data-name="Group 613" transform="translate(14.952 30.641)">
              <path id="Path_943" data-name="Path 943" d="M2200.99,1031.1l-2.041-2.526-6.875-6.852-2.224,2.141Z" transform="translate(-2189.85 -1021.727)" fill="#cfc3bc"/>
            </g>
            <g id="Group_614" data-name="Group 614" transform="translate(2.245 31.296)">
              <path id="Path_944" data-name="Path 944" d="M2169.874,1023.478s5.769,8.757,6.045,12.61-2.144,32.679-4.083,41.946-15.939-1.046-15.939-1.046,9.409-15.229,5.8-27.422-4.925-17.068-4.925-17.068,1.244-6.792,5.647-7.746C2166.279,1023.914,2169.874,1023.478,2169.874,1023.478Z" transform="translate(-2155.898 -1023.478)" fill="#dd5458"/>
            </g>
            <g id="Group_615" data-name="Group 615" transform="translate(27.828 32.208)">
              <path id="Path_945" data-name="Path 945" d="M2235.057,1038.065s1.041,3.682-3.013,11.82c0,0,.065,10.418.178,13.671s2.416,14.955,2.416,14.955l-5.54,2.951a1.13,1.13,0,0,1-1.694-1.112c1.135-9.364,4.828-44.887-3.151-54.434l3.2.945S2233.145,1031.513,2235.057,1038.065Z" transform="translate(-2224.254 -1025.915)" fill="#dd5458"/>
            </g>
            <g id="Group_616" data-name="Group 616" transform="translate(26.42 29.394)">
              <path id="Path_946" data-name="Path 946" d="M2222.662,1026.1l3.147.869-5.316-8.57Z" transform="translate(-2220.493 -1018.396)" fill="#f3e4dc"/>
            </g>
            <g id="Group_617" data-name="Group 617" transform="translate(15.272 30.266)">
              <path id="Path_947" data-name="Path 947" d="M2199.485,1027.952l-2.875,3.769-5.9-9.839,2.048-1.157Z" transform="translate(-2190.707 -1020.726)" fill="#f3e4dc"/>
            </g>
            <rect id="Rectangle_156" data-name="Rectangle 156" width="1.041" height="12.309" transform="matrix(0.784, -0.621, 0.621, 0.784, 28.21, 52.732)" fill="#cb4949"/>
            <path id="Path_948" data-name="Path 948" d="M2222,1099.6a2.236,2.236,0,0,0,1.209-.348c.827-.624,1.125-2.162,2.587-2.051s2.141,4.7,1.773,5.564-2.4,1.3-5.4.7S2222,1099.6,2222,1099.6Z" transform="translate(-2194.264 -1038.311)" fill="#dba585"/>
            <path id="Path_949" data-name="Path 949" d="M2231.892,1094.472a45.763,45.763,0,0,1,4.528-1.242c2.127-.46,4.669-.61,4.917-.241.276.411-2.073.766-4.158,1.359-1.92.545-1.462.745-1.462.745s-.127-.063,2.065-.269c2.357-.221,4.784-.216,5.023.256.117.228.035.383-.813.6.509-.024.581.108.6.314.1,1.06-3.338,1.906-4.7,2.242,1.05-.253,1.842-.33,1.466.383-.432.813-5.339,1.8-7.069,2.312C2230.4,1101.491,2231.892,1094.472,2231.892,1094.472Z" transform="translate(-2200.856 -1035.548)" fill="#dba585"/>
            <path id="Path_950" data-name="Path 950" d="M2159.477,1027.164c-1.446-.471-5.688,1.034-6.405,5.385s-1.005,9.181-1.674,11.524-2.375,12.725-.941,13.584,4.15,1.648,7.961,1.648c3.934,0,19.191.685,19.191.685l.956-5.42s-5.794-.3-8.8-.754c-2.672-.405-6.376-1.543-10.737-2.022a73.207,73.207,0,0,1,1.594-8.247C2161.295,1041.73,2165.981,1029.267,2159.477,1027.164Z" transform="translate(-2149.899 -994.437)" fill="#dd5458"/>
            <g id="Group_618" data-name="Group 618" transform="translate(29.078 42.204)">
              <path id="Path_951" data-name="Path 951" d="M2227.594,1080.059l15.368-3.048,11.4-24.389-16.4,1.725Z" transform="translate(-2227.594 -1052.622)" fill="#ecb65c"/>
            </g>
            <g id="Group_620" data-name="Group 620" transform="translate(44.939 54.835)">
              <g id="Group_619" data-name="Group 619">
                <path id="Path_952" data-name="Path 952" d="M2271.4,1093.991a12.305,12.305,0,0,0,1.592-1.877c.752-1.095,3.207-5.277,2.982-5.54s-3.87-.35-4.53.244.649.828.649.828-1.993.206-1.85.768,1.343.408,1.343.408-1.6.309-1.362.8,1.015.488,1.015.488-1.422.178-1.246.719,2.426,1.049,2.125,1.5A10.484,10.484,0,0,0,2271.4,1093.991Z" transform="translate(-2269.976 -1086.373)" fill="#dba585"/>
              </g>
            </g>
            <g id="Group_623" data-name="Group 623" transform="translate(15.565 2.141)">
              <g id="Group_622" data-name="Group 622">
                <g id="Group_621" data-name="Group 621">
                  <path id="Path_953" data-name="Path 953" d="M2204.121,945.855s9.576,3.01,4.379,19.539-18.278-1.915-16.912-11.985S2204.121,945.855,2204.121,945.855Z" transform="translate(-2191.488 -945.576)" fill="#dba686"/>
                </g>
              </g>
            </g>
            <g id="Group_626" data-name="Group 626" transform="translate(14.81 0.814)">
              <g id="Group_625" data-name="Group 625">
                <g id="Group_624" data-name="Group 624">
                  <path id="Path_954" data-name="Path 954" d="M2208.215,953.281a21.609,21.609,0,0,1-12.723,5.255s-3.061,3.589-3.3,5c0,0-7.106-12.113,1.629-19.373S2211.426,950.291,2208.215,953.281Z" transform="translate(-2189.471 -942.032)" fill="#20313f"/>
                </g>
              </g>
            </g>
            <g id="Group_629" data-name="Group 629" transform="translate(17.604 14.34)">
              <g id="Group_628" data-name="Group 628">
                <g id="Group_627" data-name="Group 627">
                  <path id="Path_955" data-name="Path 955" d="M2200.26,981.48c-.061-1.2-.8-3.94-2.59-3.174s.11,6.341,1.294,6C2198.964,984.3,2200.4,984.325,2200.26,981.48Z" transform="translate(-2196.937 -978.173)" fill="#dba686"/>
                </g>
              </g>
            </g>
            <path id="Path_956" data-name="Path 956" d="M2209.672,1008.289c-.057.631-.121,1.34-.179,2.072h0c-5.537-2.735-6.386-6.676-6.41-6.8C2207.026,1008.66,2209.672,1008.289,2209.672,1008.289Z" transform="translate(-2183.178 -979.72)" fill="#997761"/>
          </g>
          <g id="Group_647" data-name="Group 647" transform="translate(324.074 244.306)">
            <path id="Path_957" data-name="Path 957" d="M2376.007,1191.878a34.639,34.639,0,0,0,1.276,4.234c.4,1.044.594,7.886.553,8.772-.033.742-.527.3-.778-.185-.144-.281-.593-2.646-1.03-3.905-.367-1.055-.686-1.45-.872-1.109a23.141,23.141,0,0,0-.121,6.62c.4,1.876-.017,6.208-1.005,5.583s-3.3-8.458-3.109-11.406a38.613,38.613,0,0,1,1.249-6.646Z" transform="translate(-2360.891 -1096.618)" fill="#dba585"/>
            <g id="Group_631" data-name="Group 631" transform="translate(10.325 33.925)">
              <path id="Path_958" data-name="Path 958" d="M2371.729,1092.1l6.189-.541s.739-7.058,1.531-13.835c.256-2.195.518-4.359.762-6.245,0-.024.007-.051.01-.077s.007-.048.009-.076c.306-2.356.583-4.261.785-5.217.387-1.849,1.454-6.443,2.13-10.216.222-1.244.409-2.525.569-3.777,0,0,0-.005,0-.005.635-5.006.8-9.572.8-9.572s5.509-13.758-2.583-14.548a8.267,8.267,0,0,0-2.293,1.148c-1.863,1.717-4.318,12.193-4.365,13.948-.038,1.426-2.132,15.815-2.162,16.323-.058.989-.544,7.653-.742,10.578C2371.9,1076.821,2371.729,1092.1,2371.729,1092.1Z" transform="translate(-2371.729 -1027.992)" fill="#d7cac3"/>
            </g>
            <g id="Group_632" data-name="Group 632" transform="translate(0 187.691)">
              <path id="Path_959" data-name="Path 959" d="M2356.3,1439.451s-3.243,3.406-6.536,4.12-5.6,1.624-5.621,3.578,9.477,3.244,13.244,1.272c5.625-2.94,6.2-2.053,6.82-3.524s-.75-5.4-.709-5.867C2363.547,1438.451,2356.3,1439.451,2356.3,1439.451Z" transform="translate(-2344.142 -1438.85)" fill="#26283a"/>
            </g>
            <g id="Group_633" data-name="Group 633" transform="translate(12.151 185.703)">
              <path id="Path_960" data-name="Path 960" d="M2376.979,1434.5a13.446,13.446,0,0,0-.365,1.63c.065.034,7.422.858,7.2-.422-.18-1.04-.438-2.168-.438-2.168Z" transform="translate(-2376.608 -1433.538)" fill="#486b89"/>
            </g>
            <g id="Group_634" data-name="Group 634" transform="translate(37.879 188.941)">
              <path id="Path_961" data-name="Path 961" d="M2456.273,1442.429s-2.386,3.32-5.578,4.083c-3.147.756-5.186,2.191-5.34,4.092s7.419,4.386,12.741,1.05c3.5-2.193,4.8-2.068,5.505-3.462s-.369-5.3-.3-5.75C2463.39,1441.883,2456.273,1442.429,2456.273,1442.429Z" transform="translate(-2445.353 -1442.19)" fill="#26283a"/>
            </g>
            <g id="Group_635" data-name="Group 635" transform="translate(48.786 186.941)">
              <path id="Path_962" data-name="Path 962" d="M2474.607,1437.445a14.514,14.514,0,0,0-.1,1.64c.06.038,7.072,1.279,7.03.013a9.772,9.772,0,0,0-.445-2.252Z" transform="translate(-2474.496 -1436.846)" fill="#486b89"/>
            </g>
            <g id="Group_636" data-name="Group 636" transform="translate(11.845 83.75)">
              <path id="Path_963" data-name="Path 963" d="M2383.89,1168.2s-3.407,24.747-4.8,33.114c-1.627,9.783-2.179,17.864-2.632,22.926-.57,6.368-.253,38.958-.653,40.82s8.056.893,8.056.893,6.2-42.485,7.9-49.266c1.582-6.316,5.936-32.348,7.379-30.626s6.122,31.381,7.19,36.362,5.389,44.186,5.389,44.186,7.186,1.563,9.146,0c0,0-.438-34.959-1.12-44.3-.259-3.557,2.252-42.6-3.767-58.345C2412.8,1155.652,2383.89,1168.2,2383.89,1168.2Z" transform="translate(-2375.792 -1161.123)" fill="#363957"/>
            </g>
            <path id="Path_964" data-name="Path 964" d="M2396,1183.2l-.383,3.717s10.378,4.2,35.648,4.207v-4.251Z" transform="translate(-2376.351 -1091.186)" fill="#f3e4dc"/>
            <path id="Path_965" data-name="Path 965" d="M2391.007,1081.4s18.58,5.962,36.427,3.638c0,0-3.831-17.188-3.116-23.051.3-2.473.742-6.006,1.2-9.635.215-1.715.435-3.449.644-5.1.691-5.484,1.275-10.08,1.275-10.08s-3.12-12.142-4.711-13.486-11.9-3.042-11.9-3.042l-9.276.3s-9.014,1.866-10.085,2.812c-1.161,1.011-3,10.9-3.332,13.636-.494,4.085,1.088,14.239,2.249,18.518S2388.851,1078.4,2391.007,1081.4Z" transform="translate(-2371.611 -989.471)" fill="#d7cac3"/>
            <path id="Path_966" data-name="Path 966" d="M2413.22,1018.635s-.541-2.468,7.179-3.038,12.943,1.164,13.087,3.378-19.557,7.746-19.557,7.746Z" transform="translate(-2387.362 -986.242)" fill="#f3e4dc"/>
            <path id="Path_967" data-name="Path 967" d="M2419.367,1002.214s2.6,1.146,11.061-2.583a38.315,38.315,0,0,1,1.421-11.219c1.658-5.419-11.355,7.225-11.355,7.225.122.086.156.543.1,1.193-.006.066-.011.132-.019.2a15.445,15.445,0,0,1-.418,2.239C2419.684,1001.08,2419.8,1000.759,2419.367,1002.214Z" transform="translate(-2391.213 -968.455)" fill="#dba585"/>
            <path id="Path_968" data-name="Path 968" d="M2469.891,1065.685c.936,3.693,6.842,14.854,6.842,14.854.215-1.715.434-3.449.643-5.1C2474.256,1071.1,2469.891,1065.685,2469.891,1065.685Z" transform="translate(-2422.828 -1017.653)" fill="#968d88"/>
            <path id="Path_969" data-name="Path 969" d="M2390.019,1111.72c.255-2.195.518-4.359.762-6.245,0-.024.007-.051.01-.077s.006-.048.009-.076a72.977,72.977,0,0,0-.254-11.6c-.432-2.336-1.881-11.408-1.881-11.408C2388.328,1091.853,2390.019,1111.72,2390.019,1111.72Z" transform="translate(-2371.974 -1028.062)" fill="#968d88"/>
            <g id="Group_637" data-name="Group 637" transform="translate(22.614 1.581)">
              <path id="Path_970" data-name="Path 970" d="M2410.125,943.188s-6.993,2-5.294,15c1.875,14.339,12.114,10.507,14.708,7.85s4.635-8.405,4.759-12.73S2423.6,937.318,2410.125,943.188Z" transform="translate(-2404.565 -941.57)" fill="#dba585"/>
            </g>
            <g id="Group_638" data-name="Group 638" transform="translate(22.414)">
              <path id="Path_971" data-name="Path 971" d="M2404.03,949.95s.24-4.789,6.172-3.8,11.65,5.625,11.7,13.01c0,0,8.2-13.423,1.694-18.985S2404.03,936.941,2404.03,949.95Z" transform="translate(-2404.03 -937.346)" fill="#575cab"/>
            </g>
            <g id="Group_639" data-name="Group 639" transform="translate(21.891 8.658)">
              <path id="Path_972" data-name="Path 972" d="M2410.841,960.958s-6.385,6.124-8.176,6.281C2402.665,967.239,2401.682,958.356,2410.841,960.958Z" transform="translate(-2402.634 -960.481)" fill="#2c2e46"/>
            </g>
            <path id="Path_973" data-name="Path 973" d="M2446.578,975.238c.407-1.3,1.911-3.048,2.608-1.113s-1.229,6.351-2.047,5.73S2445.831,977.627,2446.578,975.238Z" transform="translate(-2408.01 -959.821)" fill="#dba585"/>
            <path id="Path_974" data-name="Path 974" d="M2421.486,1010.051a9.779,9.779,0,0,0,9.48-5.758,9.352,9.352,0,0,1-9.043,3.319c-.006.066-.011.132-.02.2A15.439,15.439,0,0,1,2421.486,1010.051Z" transform="translate(-2392.54 -979.238)" fill="#997761"/>
            <path id="Path_975" data-name="Path 975" d="M2423.876,1144.189s-16.231-1.055-21.458-3.407c0,0-.508-11.715-.58-13.386l3.345-4.281,14.147,1.161,5.2,4.792Z" transform="translate(-2380.244 -1053.589)" fill="#f3e4dc"/>
            <g id="Group_641" data-name="Group 641" transform="translate(5.261 87.192)">
              <path id="Path_976" data-name="Path 976" d="M2426.028,1210.4a34.168,34.168,0,1,0-39.559,27.751A34.168,34.168,0,0,0,2426.028,1210.4Z" transform="translate(-2358.199 -1170.318)" fill="#e7b96b"/>
              <path id="Path_977" data-name="Path 977" d="M2384.472,1237.738l11.79-67.189a34.169,34.169,0,0,0-11.79,67.189Z" transform="translate(-2358.198 -1170.321)" fill="#e7b96b"/>
              <path id="Path_978" data-name="Path 978" d="M2487.318,1215.364a34.181,34.181,0,0,0-19.715-37.107l-11.456,65.29A34.184,34.184,0,0,0,2487.318,1215.364Z" transform="translate(-2419.489 -1175.286)" fill="#e7b96b"/>
              <path id="Path_979" data-name="Path 979" d="M2432.054,1217.534a25.97,25.97,0,1,0-25.286,26.636A25.971,25.971,0,0,0,2432.054,1217.534Z" transform="translate(-2371.917 -1184.035)" fill="#e09637"/>
              <g id="Group_640" data-name="Group 640" transform="translate(20.573 19.829)">
                <path id="Path_980" data-name="Path 980" d="M2428.408,1223.3a16.415,16.415,0,0,1,3.985,1.3,14.62,14.62,0,0,1,3.837,2.638l2.789-2.625,1.353,1.437-2.79,2.626a12.82,12.82,0,0,1,1.84,3.034,8.665,8.665,0,0,1,.7,3.12,7.246,7.246,0,0,1-.562,3.029,8.009,8.009,0,0,1-1.96,2.731,6.512,6.512,0,0,1-2.327,1.484,5.6,5.6,0,0,1-2.45.25,8.781,8.781,0,0,1-2.738-.837,31.735,31.735,0,0,1-3.219-1.788,4.8,4.8,0,0,1-.421-.254c-.141-.093-.281-.178-.423-.254l-5.717,5.38a14.952,14.952,0,0,0,2.193,1.556,17,17,0,0,0,2.235,1.1,13.465,13.465,0,0,0,2.019.653,6.705,6.705,0,0,0,1.55.208l-1.327,3.905a16.426,16.426,0,0,1-4.9-1.585,19.156,19.156,0,0,1-4.348-3.043l-2.955,2.781-1.352-1.437,2.9-2.728a14.484,14.484,0,0,1-2.111-2.989,8.906,8.906,0,0,1-.991-3.131,6.67,6.67,0,0,1,.362-3.073,7.536,7.536,0,0,1,2.006-2.878,6.943,6.943,0,0,1,2.68-1.663,6.075,6.075,0,0,1,2.77-.185,10.623,10.623,0,0,1,2.987,1.017,33.652,33.652,0,0,1,3.335,1.938l.6.421,5.718-5.38a11.007,11.007,0,0,0-1.731-1.313,12.581,12.581,0,0,0-1.81-.928,11.5,11.5,0,0,0-1.66-.547,5.222,5.222,0,0,0-1.281-.172Zm7.782,11.007a5.49,5.49,0,0,0-1.552-3.226l-5.442,5.121a10.8,10.8,0,0,0,3.349,1.511,2.739,2.739,0,0,0,2.507-.824A3.28,3.28,0,0,0,2436.19,1234.308Zm-18.773,5.924a6.91,6.91,0,0,0,1.9,3.345l5.47-5.147a14.369,14.369,0,0,0-3.667-1.654,2.81,2.81,0,0,0-2.747.762A2.862,2.862,0,0,0,2417.417,1240.232Z" transform="translate(-2413.169 -1223.301)" fill="#eac483"/>
              </g>
              <path id="Path_981" data-name="Path 981" d="M2379.119,1236.066a34.177,34.177,0,0,1,11.515-65.631Z" transform="translate(-2358.199 -1170.391)" fill="#f7f7f7" style="mix-blend-mode: soft-light;isolation: isolate"/>
              <path id="Path_982" data-name="Path 982" d="M2438.786,1238.961l11.456-65.29a34.26,34.26,0,0,0-8.035-2.451q-1.011-.175-2.016-.292l-11.79,67.19q.985.232,1.994.411A34.252,34.252,0,0,0,2438.786,1238.961Z" transform="translate(-2402.127 -1170.7)" fill="#f7f7f7" style="mix-blend-mode: soft-light;isolation: isolate"/>
            </g>
            <g id="Group_646" data-name="Group 646" transform="translate(39.725 82.911)">
              <g id="Group_645" data-name="Group 645">
                <g id="Group_644" data-name="Group 644">
                  <g id="Group_643" data-name="Group 643">
                    <g id="Group_642" data-name="Group 642">
                      <path id="Path_983" data-name="Path 983" d="M2458.281,1169.421a3.8,3.8,0,0,0,.523-1.1s.047-.741.111-1.266a3.708,3.708,0,0,1,.066-.4,6.976,6.976,0,0,0,.416-2.185,46.649,46.649,0,0,0-1.2-5.23l-2.475-.016-2.315-.343s-3.024,5.244-3.114,6.168a2.161,2.161,0,0,0-.011.264,8.789,8.789,0,0,0,.38,1.79c.019.151.3,1.649.7,1.87a1.487,1.487,0,0,0,1.444.092,3.56,3.56,0,0,0,1.924.366,2.21,2.21,0,0,0,1.951.022S2457.772,1169.888,2458.281,1169.421Z" transform="translate(-2450.286 -1158.882)" fill="#dba585"/>
                    </g>
                  </g>
                </g>
              </g>
            </g>
            <path id="Path_984" data-name="Path 984" d="M2459.862,1027.875c-1.069.681-1.74,3.731.271,9.05a24.145,24.145,0,0,0,5.666,9.063c1.057,1.224,7.061,8.869,6.509,10.142s-6.426,9.946-6.732,10.62-7.967,9.543-7.967,9.543l7.078,4.2s14.094-16.365,15.194-18.014,4.639-5.359,2.161-9.859c-2.52-4.575-7.577-15.45-8.249-16.245S2467.435,1023.056,2459.862,1027.875Z" transform="translate(-2415.144 -993.306)" fill="#d7cac3"/>
          </g>
          <g id="Group_690" data-name="Group 690" transform="translate(0 245.245)">
            <g id="Group_648" data-name="Group 648" transform="translate(0.245 32.637)">
              <path id="Path_985" data-name="Path 985" d="M1489.183,1035.553s-1.387,19.454,2.414,21.781c2.381,1.458,11.875,6.377,11.592,7.3s-5.359,8.208-5.359,8.208-18.236-12.01-18.824-15.794c-.574-3.7.9-28.482,3.4-29.623,1.878-.856,2.869-.148,5.234,1.608C1490.966,1031.5,1489.183,1035.553,1489.183,1035.553Z" transform="translate(-1478.883 -1027.063)" fill="#6e8bdb"/>
            </g>
            <g id="Group_651" data-name="Group 651" transform="translate(0.975 182.183)">
              <g id="Group_650" data-name="Group 650">
                <g id="Group_649" data-name="Group 649">
                  <path id="Path_986" data-name="Path 986" d="M1488.284,1427.151s-.568,3.936-.639,4.527-6.307-.349-6.307-.349l-.506-4.684S1487.5,1426.595,1488.284,1427.151Z" transform="translate(-1480.833 -1426.644)" fill="#454971"/>
                </g>
              </g>
            </g>
            <g id="Group_654" data-name="Group 654" transform="translate(0 186.451)">
              <g id="Group_653" data-name="Group 653">
                <g id="Group_652" data-name="Group 652">
                  <path id="Path_987" data-name="Path 987" d="M1486.083,1438.312a16.807,16.807,0,0,0,3.887,3.4c1.912,1.035,4.914,1.444,6.045,2.514.816.772,2.971,4.1-4.966,4.03s-11.766.47-12.616-.8,1.231-9.41,1.231-9.41S1481.544,1438.722,1486.083,1438.312Z" transform="translate(-1478.229 -1438.046)" fill="#2e3048"/>
                </g>
              </g>
            </g>
            <g id="Group_657" data-name="Group 657" transform="translate(32.19 182.183)">
              <g id="Group_656" data-name="Group 656">
                <g id="Group_655" data-name="Group 655">
                  <path id="Path_988" data-name="Path 988" d="M1571.689,1427.151s-.566,3.936-.639,4.527-6.307-.349-6.307-.349l-.506-4.684S1570.909,1426.595,1571.689,1427.151Z" transform="translate(-1564.238 -1426.644)" fill="#454971"/>
                </g>
              </g>
            </g>
            <g id="Group_660" data-name="Group 660" transform="translate(31.215 186.451)">
              <g id="Group_659" data-name="Group 659">
                <g id="Group_658" data-name="Group 658">
                  <path id="Path_989" data-name="Path 989" d="M1569.487,1438.312a16.847,16.847,0,0,0,3.888,3.4c1.912,1.035,8.946,1.885,10.076,2.954.815.773,2.173,3.882-9,3.59-7.936-.206-11.765.47-12.617-.8s1.232-9.41,1.232-9.41S1564.839,1438.769,1569.487,1438.312Z" transform="translate(-1561.633 -1438.046)" fill="#2e3048"/>
                </g>
              </g>
            </g>
            <g id="Group_663" data-name="Group 663" transform="translate(0 81.554)">
              <g id="Group_662" data-name="Group 662">
                <g id="Group_661" data-name="Group 661">
                  <path id="Path_990" data-name="Path 990" d="M1488.892,1157.767s-5.861,9.312-5.424,17.727-.522,17.408-1.4,26.2c-.982,9.8-3.655,30.2-3.8,35.445s.192,24.971.192,24.971l10.166-.075s3.609-39.856,5.356-44,8.927-34.083,9.219-37.394S1488.892,1157.767,1488.892,1157.767Z" transform="translate(-1478.228 -1157.767)" fill="#2e3048"/>
                </g>
              </g>
            </g>
            <g id="Group_666" data-name="Group 666" transform="translate(7.714 79.951)">
              <g id="Group_665" data-name="Group 665">
                <g id="Group_664" data-name="Group 664">
                  <path id="Path_991" data-name="Path 991" d="M1532.639,1156.348s2.316,22.881,2.9,28.032.183,27.474.475,30.692-1.948,37.273-2.5,43.759l-11.173-.073s-.771-27.546-.771-40.931-3.434-28.965-7.37-37.8-12.942-9.041-15.361-25.423C1498.84,1154.609,1529.366,1151.151,1532.639,1156.348Z" transform="translate(-1498.84 -1153.482)" fill="#2e3048"/>
                </g>
              </g>
            </g>
            <g id="Group_669" data-name="Group 669" transform="translate(13.449 1.068)">
              <g id="Group_668" data-name="Group 668">
                <g id="Group_667" data-name="Group 667">
                  <path id="Path_992" data-name="Path 992" d="M1517.568,944.691s6.983-4.666,11.887.332,7.313,16.745,3.792,19.09-9.5,2.96-12.33-.223-5.862-8.032-6.606-11.577S1515.8,946.181,1517.568,944.691Z" transform="translate(-1514.163 -942.712)" fill="#dba585"/>
                </g>
              </g>
            </g>
            <g id="Group_672" data-name="Group 672" transform="translate(17.758 18.287)">
              <g id="Group_671" data-name="Group 671">
                <g id="Group_670" data-name="Group 670">
                  <path id="Path_993" data-name="Path 993" d="M1538.078,993.692s-.09,4.909.449,5.954-10.191,1.074-10.191,1.074a70.571,70.571,0,0,0-2.523-10.5C1524.163,985.414,1538.078,993.692,1538.078,993.692Z" transform="translate(-1525.677 -988.72)" fill="#dba585"/>
                </g>
              </g>
            </g>
            <g id="Group_675" data-name="Group 675" transform="translate(12.51)">
              <g id="Group_674" data-name="Group 674">
                <g id="Group_673" data-name="Group 673">
                  <path id="Path_994" data-name="Path 994" d="M1517.306,959.567s1,1.019,3.836-.136,5.5-5.917,6.63-6.636.969-1.444.969-1.444l1.034.942,1.326-.224s-2.017-3.223-.558-5.073-4.535-10.9-13.2-5.376c0,0-6.779,3.708-5.543,7.768S1515.2,957.9,1517.306,959.567Z" transform="translate(-1511.653 -939.857)" fill="#6a493a"/>
                </g>
              </g>
            </g>
            <g id="Group_678" data-name="Group 678" transform="translate(19.193 26.147)">
              <g id="Group_677" data-name="Group 677">
                <g id="Group_676" data-name="Group 676">
                  <path id="Path_995" data-name="Path 995" d="M1541.563,1012.661s-.033-2-.94-2.191-10-1.066-11.112-.628v2.329S1531.653,1013.489,1541.563,1012.661Z" transform="translate(-1529.511 -1009.721)" fill="#dcd0c8"/>
                </g>
              </g>
            </g>
            <g id="Group_681" data-name="Group 681" transform="translate(26.313 8.908)">
              <g id="Group_680" data-name="Group 680">
                <g id="Group_679" data-name="Group 679">
                  <path id="Path_996" data-name="Path 996" d="M1551.272,964.792c-.329-.653-2.553-2.214-2.727.06s2.186,4.723,3.072,4.257S1552.1,966.447,1551.272,964.792Z" transform="translate(-1548.535 -963.66)" fill="#dba585"/>
                </g>
              </g>
            </g>
            <g id="Group_684" data-name="Group 684" transform="translate(11.152 4.249)">
              <g id="Group_683" data-name="Group 683">
                <g id="Group_682" data-name="Group 682">
                  <path id="Path_997" data-name="Path 997" d="M1511.709,951.209s-9.987,2.678,2.923,15.074Z" transform="translate(-1508.024 -951.209)" fill="#6a493a"/>
                </g>
              </g>
            </g>
            <g id="Group_685" data-name="Group 685" transform="translate(85.4 54.972)">
              <path id="Path_998" data-name="Path 998" d="M1708.467,1088.721a2.659,2.659,0,0,0,1.5-.117c1.119-.532,1.838-2.263,3.523-1.78s1.378,6.012.742,6.94-3.118.949-6.487-.47S1708.467,1088.721,1708.467,1088.721Z" transform="translate(-1706.414 -1086.74)" fill="#dba585"/>
            </g>
            <g id="Group_686" data-name="Group 686" transform="translate(89.976 54.604)">
              <path id="Path_999" data-name="Path 999" d="M1720.544,1086.126a54.572,54.572,0,0,1,5.6-.367c2.6-.028,5.653.391,5.817.9.363,1.123-2.528.764-5.112.957a16.368,16.368,0,0,0-1.973.159s-.133-.107,2.483.178c2.811.309,5.652.9,5.819,1.505.083.3.083,1.224-.986.8.6.1.546-.023.52.221-.137,1.268-4.364,1.433-6.042,1.5,1.289-.043,2.236.058,1.622.8-.7.849-6.68.825-8.83,1.012C1717.116,1093.986,1720.544,1086.126,1720.544,1086.126Z" transform="translate(-1718.64 -1085.757)" fill="#dba585"/>
            </g>
            <g id="Group_689" data-name="Group 689" transform="translate(2.224 28.597)">
              <g id="Group_688" data-name="Group 688">
                <g id="Group_687" data-name="Group 687">
                  <path id="Path_1000" data-name="Path 1000" d="M1526.476,1019.528c-6.472-1.137-13.285-2.771-13.285-2.771l-12.053-.491s-11.062,2.435-15.419,4.4c-.413.186-.415,9.868-1.549,12.408l3.612,7.621s2.086,15.1,2.519,21.808c.2,3.082-4.3,28.9-4.3,28.9a83.134,83.134,0,0,0,13.049,2.328c8.227.907,28.782-.328,28.912-1.3s-3.981-36.179-4.163-38c-.279-2.8.807-15.73.807-15.73,1.551,2.083,10.513,9.894,14.888,12.375,3.112,1.765,10.7,1.119,12.953.888,4.866-.5,18.381-1.149,18.643-1.627.21-.286-.8-5.929-1.365-6.117-.494-.164-17.847-1.021-22.2-.8-1.768.09-7.528-6.343-7.528-6.343S1530.047,1021.133,1526.476,1019.528Z" transform="translate(-1484.17 -1016.267)" fill="#6e8bdb"/>
                </g>
              </g>
            </g>
          </g>
        </g>
      </g>
    </g>
  </g>
</svg>
