<svg xmlns="http://www.w3.org/2000/svg" width="459.924" height="250.71" viewBox="0 0 459.924 250.71">
  <g id="Group_923" data-name="Group 923" transform="translate(-86.667 -92.826)">
    <g id="Group_851" data-name="Group 851" transform="translate(96.709 92.826)">
      <g id="Group_849" data-name="Group 849" transform="translate(10.462 29.159)">
        <g id="Group_848" data-name="Group 848">
          <path id="Path_1288" data-name="Path 1288" d="M519.649,350.937c4.608-10.969,8.889-22.12,10.765-33.84,2.2-13.771.778-28.629-6.816-40.327-4.156-6.4-10.007-11.663-13.5-18.449-9.43-18.308.922-40.75-2.791-61.006-4.192-22.87-26.171-39.075-48.9-43.98s-46.307-.865-69.257,2.86-46.765,7.085-69.178.905c-17.5-4.826-32.938-15.166-49.82-21.85s-37.283-9.24-52.289.983c-16.026,10.918-20.478,32.2-23.482,51.358S187.307,228,171.61,239.39c-14.114,10.237-34.347,9.69-47.41,21.238-14.79,13.074-14.3,37.42-4.312,54.444,8.948,15.248,23.583,26,38.4,35.865Z" transform="translate(-112.441 -129.387)" fill="#cee8f0"/>
          <path id="Path_1289" data-name="Path 1289" d="M175.11,229.745a32.67,32.67,0,0,0,5.011-16.374c.022-5.777-2.134-11.691-6.457-15.523s-10.9-5.223-16.129-2.764c-4.559,2.144-7.443,6.636-10.8,10.39a43.126,43.126,0,0,1-15.91,11.172c-5.364,2.166-11.481,3.453-15.265,7.83-4.409,5.1-4.016,13.246-.171,18.784,11.2,16.131,36.306,8.682,49-1.363A44.88,44.88,0,0,0,175.11,229.745Z" transform="translate(-112.376 -142.439)" fill="#cee8f0"/>
        </g>
      </g>
      <g id="Group_850" data-name="Group 850">
        <path id="Path_1290" data-name="Path 1290" d="M620.733,127.579a8.181,8.181,0,0,0,7.71-5.426,25.11,25.11,0,0,0,.777-2.542c.652-2.787-.381-6.193-3.027-7.286-2.975-1.228-6.346.877-9.529.4-4.182-.624-6.374-5.221-7.633-9.257-1.4-4.491-3.144-9.755-8.187-10.554a8.447,8.447,0,0,0-6.53,1.9c-4.885,3.914-5.948,10.068-9.2,14.943-2.418,3.623-6.834,6.591-10.971,5.227-4.472-1.474-6.817-7.373-11.509-7.75-4.356-.35-7.31,4.26-8.929,8.319s-3.651,8.854-7.94,9.691c-4.237.825-8.414-2.853-12.636-1.956a6.246,6.246,0,0,0-4.532,4.292Z" transform="translate(-186.174 -92.826)" fill="#cee8f0"/>
        <path id="Path_1291" data-name="Path 1291" d="M180.89,149.413a1.448,1.448,0,0,0,1.235-2.223l-.014-.021c-2.349-3.427-7.43-4.8-11.074-2.393a5.336,5.336,0,0,1-1.989.819c-8.535,1.519-6.367-5.822-9.7-8.869-2.578-2.36-7.052-.955-9.757.381a8.608,8.608,0,0,1-1.562.59c-9.741,2.639-10.068-7.516-14.973-12.348-4.686-4.616-13.97-2.45-16.13,3.762-1.624,4.671-.246,11.232-4.638,13.506-2.249,1.164-4.99.445-7.483.892a8.161,8.161,0,0,0-5.313,3.648,1.459,1.459,0,0,0,1.219,2.255Z" transform="translate(-99.258 -98.909)" fill="#cee8f0"/>
      </g>
    </g>
    <g id="Group_854" data-name="Group 854" transform="translate(168.904 112.976)">
      <g id="Group_852" data-name="Group 852">
        <path id="Path_1292" data-name="Path 1292" d="M189.778,124.82l16.544,9.811,2.487-3.6-.02-4.148,1.714-2.5-16.775-.145Z" transform="translate(-189.778 -119.334)" fill="#36c2d9"/>
        <path id="Path_1293" data-name="Path 1293" d="M189.778,124.969l23.231,2.28,3.526,7.379Z" transform="translate(-189.778 -119.483)" fill="#cee8f0"/>
        <path id="Path_1294" data-name="Path 1294" d="M208.474,118.09l2.028,5.043-20.724.443Z" transform="translate(-189.778 -118.09)" fill="#cee8f0"/>
      </g>
      <g id="Group_853" data-name="Group 853" transform="translate(324.915 47.552)">
        <path id="Path_1295" data-name="Path 1295" d="M627.755,190.318l-18.909,3.523-1.1-4.237,1.446-3.888-.748-2.941,15.8,5.633Z" transform="translate(-599.309 -178.737)" fill="#36c2d9"/>
        <path id="Path_1296" data-name="Path 1296" d="M625.613,190.748l-22.6-5.849-5.849,5.716Z" transform="translate(-597.167 -179.167)" fill="#cee8f0"/>
        <path id="Path_1297" data-name="Path 1297" d="M612.264,177.712l-3.639,4.038,19.307,7.544Z" transform="translate(-599.486 -177.712)" fill="#cee8f0"/>
      </g>
    </g>
    <g id="Group_879" data-name="Group 879" transform="translate(144.388 121.018)">
      <g id="Group_873" data-name="Group 873" transform="translate(0 86.219)">
        <g id="Group_868" data-name="Group 868">
          <path id="Path_1298" data-name="Path 1298" d="M208.617,355.527a26.818,26.818,0,0,1-.482-23.336c2.687-5.748,7.519-10.787,7.917-17.12.309-4.925-2.23-9.646-5.554-13.293s-7.432-6.474-11.163-9.7c-6.572-5.686-12.081-12.813-14.851-21.05s-2.592-17.641,1.491-25.311c2.924-5.492,8.655-10.214,14.813-9.33,5.771.829,9.824,6.2,11.937,11.638s2.982,11.367,5.817,16.462c5.176,9.307,15.95,14.229,21.877,23.076,10.174,15.185,3.092,36.251,9.406,53.4,1.958,5.321,5.25,10.544,4.576,16.172-1.32,11.034-14.937,14.842-24.278,13.932C221.665,370.245,212.419,362.857,208.617,355.527Z" transform="translate(-163.813 -236.278)" fill="#21b789"/>
          <g id="Group_867" data-name="Group 867" transform="translate(0 34.8)">
            <g id="Group_855" data-name="Group 855" transform="translate(23.793 24.631)">
              <path id="Path_1299" data-name="Path 1299" d="M223.962,382.809a.664.664,0,0,1-.442-.167c-27.934-24.764-34.578-70.628-34.642-71.09a.666.666,0,0,1,1.319-.183c.064.455,6.645,45.843,34.206,70.276a.666.666,0,0,1-.442,1.164Z" transform="translate(-188.872 -310.793)" fill="#3bdbaa"/>
            </g>
            <g id="Group_856" data-name="Group 856" transform="translate(16.082)">
              <path id="Path_1300" data-name="Path 1300" d="M190.245,317.976s-17.208-25.978-8.66-36.525S190.245,317.976,190.245,317.976Z" transform="translate(-179.203 -279.911)" fill="#3bdbaa"/>
            </g>
            <g id="Group_857" data-name="Group 857" transform="translate(1.684 22.745)">
              <path id="Path_1301" data-name="Path 1301" d="M190.353,335s-29.507-10.018-29.2-23.59S190.353,335,190.353,335Z" transform="translate(-161.151 -308.429)" fill="#3bdbaa"/>
            </g>
            <g id="Group_858" data-name="Group 858" transform="translate(30.069 11.354)">
              <path id="Path_1302" data-name="Path 1302" d="M196.741,331.794s18.657-24.958,10.722-35.974S196.741,331.794,196.741,331.794Z" transform="translate(-196.741 -294.147)" fill="#3bdbaa"/>
            </g>
            <g id="Group_859" data-name="Group 859" transform="translate(33.428 23.554)">
              <path id="Path_1303" data-name="Path 1303" d="M200.953,344.708s23.237-20.762,17.644-33.133S200.953,344.708,200.953,344.708Z" transform="translate(-200.953 -309.443)" fill="#3bdbaa"/>
            </g>
            <g id="Group_860" data-name="Group 860" transform="translate(38.704 35.408)">
              <path id="Path_1304" data-name="Path 1304" d="M207.568,358.552s24.479-19.282,19.664-31.975S207.568,358.552,207.568,358.552Z" transform="translate(-207.568 -324.307)" fill="#3bdbaa"/>
            </g>
            <g id="Group_861" data-name="Group 861" transform="translate(44.921 46.288)">
              <path id="Path_1305" data-name="Path 1305" d="M215.363,372.193s24.479-19.281,19.664-31.975S215.363,372.193,215.363,372.193Z" transform="translate(-215.363 -337.948)" fill="#3bdbaa"/>
            </g>
            <g id="Group_862" data-name="Group 862" transform="translate(53.248 56.724)">
              <path id="Path_1306" data-name="Path 1306" d="M225.8,385.279S250.282,366,245.467,353.3,225.8,385.279,225.8,385.279Z" transform="translate(-225.803 -351.033)" fill="#3bdbaa"/>
            </g>
            <g id="Group_863" data-name="Group 863" transform="translate(0 40.838)">
              <path id="Path_1307" data-name="Path 1307" d="M193.6,349.736s-31.1-1.942-34.357-15.122S193.6,349.736,193.6,349.736Z" transform="translate(-159.039 -331.115)" fill="#3bdbaa"/>
            </g>
            <g id="Group_864" data-name="Group 864" transform="translate(2.791 57.63)">
              <path id="Path_1308" data-name="Path 1308" d="M199.542,364.828s-30.949,3.622-36.5-8.768S199.542,364.828,199.542,364.828Z" transform="translate(-162.539 -352.168)" fill="#3bdbaa"/>
            </g>
            <g id="Group_865" data-name="Group 865" transform="translate(7.501 74.855)">
              <path id="Path_1309" data-name="Path 1309" d="M206.9,379.5s-29.557,9.87-37.521-1.125S206.9,379.5,206.9,379.5Z" transform="translate(-168.445 -373.767)" fill="#3bdbaa"/>
            </g>
            <g id="Group_866" data-name="Group 866" transform="translate(15.782 89.498)">
              <path id="Path_1310" data-name="Path 1310" d="M217.38,393.6s-27.8,14.078-37.283,4.363S217.38,393.6,217.38,393.6Z" transform="translate(-178.827 -392.127)" fill="#3bdbaa"/>
            </g>
          </g>
        </g>
        <g id="Group_872" data-name="Group 872" transform="translate(246.969 14.619)">
          <path id="Path_1311" data-name="Path 1311" d="M471.91,336.3a26.819,26.819,0,0,1,18.839-13.78c6.25-1.1,13.149-.028,18.565-3.335,4.212-2.572,6.622-7.36,7.7-12.175s1.04-9.8,1.544-14.71c.888-8.644,3.565-17.246,8.724-24.239s12.964-12.242,21.589-13.3c6.176-.754,13.331,1.231,16.139,6.783,2.631,5.2.553,11.605-2.686,16.453s-7.6,8.963-10.148,14.207c-4.654,9.579-2.507,21.227-6.354,31.157-6.6,17.044-27.921,23.327-38.35,38.338-3.235,4.655-5.625,10.348-10.623,13.025-9.8,5.248-20.725-3.723-25.338-11.9C467.338,355.427,468.087,343.616,471.91,336.3Z" transform="translate(-468.697 -254.607)" fill="#3bdbaa"/>
          <g id="Group_871" data-name="Group 871" transform="translate(6.654 20.181)">
            <g id="Group_870" data-name="Group 870">
              <g id="Group_869" data-name="Group 869" transform="translate(14.391 25.244)">
                <path id="Path_1312" data-name="Path 1312" d="M495.613,382.6l-.53-.6c27.639-24.5,34.231-69.982,34.294-70.439l.79.109C530.1,312.131,523.474,357.9,495.613,382.6Z" transform="translate(-495.083 -311.562)" fill="#21b789"/>
              </g>
              <path id="Path_1313" data-name="Path 1313" d="M535.237,317.976S552.445,292,543.9,281.451,535.237,317.976,535.237,317.976Z" transform="translate(-488.821 -279.911)" fill="#21b789"/>
              <path id="Path_1314" data-name="Path 1314" d="M530.52,335s29.506-10.018,29.2-23.59S530.52,335,530.52,335Z" transform="translate(-487.866 -285.684)" fill="#21b789"/>
              <path id="Path_1315" data-name="Path 1315" d="M528.323,331.794S509.665,306.836,517.6,295.82,528.323,331.794,528.323,331.794Z" transform="translate(-484.853 -282.793)" fill="#21b789"/>
              <path id="Path_1316" data-name="Path 1316" d="M522.633,344.708s-23.237-20.762-17.644-33.133S522.633,344.708,522.633,344.708Z" transform="translate(-482.522 -285.889)" fill="#21b789"/>
              <path id="Path_1317" data-name="Path 1317" d="M515.566,358.552s-24.479-19.282-19.665-31.975S515.566,358.552,515.566,358.552Z" transform="translate(-480.731 -288.898)" fill="#21b789"/>
              <path id="Path_1318" data-name="Path 1318" d="M507.771,372.193s-24.479-19.281-19.665-31.975S507.771,372.193,507.771,372.193Z" transform="translate(-479.153 -291.66)" fill="#21b789"/>
              <path id="Path_1319" data-name="Path 1319" d="M497.331,385.279S472.852,366,477.667,353.3,497.331,385.279,497.331,385.279Z" transform="translate(-477.039 -294.309)" fill="#21b789"/>
              <path id="Path_1320" data-name="Path 1320" d="M525.916,349.736s31.1-1.942,34.357-15.122S525.916,349.736,525.916,349.736Z" transform="translate(-486.934 -290.277)" fill="#21b789"/>
              <path id="Path_1321" data-name="Path 1321" d="M519.349,364.828s30.95,3.622,36.5-8.768S519.349,364.828,519.349,364.828Z" transform="translate(-485.605 -294.539)" fill="#21b789"/>
              <path id="Path_1322" data-name="Path 1322" d="M511.621,379.5s29.557,9.87,37.521-1.125S511.621,379.5,511.621,379.5Z" transform="translate(-484.04 -298.911)" fill="#21b789"/>
              <path id="Path_1323" data-name="Path 1323" d="M501.118,393.6s27.8,14.078,37.283,4.363S501.118,393.6,501.118,393.6Z" transform="translate(-481.914 -302.628)" fill="#21b789"/>
            </g>
          </g>
        </g>
      </g>
      <g id="Group_878" data-name="Group 878" transform="translate(54.884)">
        <path id="Path_1324" data-name="Path 1324" d="M452.822,215.787a4.189,4.189,0,0,0-.573-.726L347.125,130.468a10.386,10.386,0,0,0-13.046.02l-104.524,84.65a4.038,4.038,0,0,0-.6.79,5.476,5.476,0,0,0-1.1,3.291V345.191a5.5,5.5,0,0,0,5.5,5.5H448.536a5.5,5.5,0,0,0,5.5-5.5V219.218A5.475,5.475,0,0,0,452.822,215.787Z" transform="translate(-227.854 -128.173)" fill="#b9203b"/>
        <g id="Group_875" data-name="Group 875" transform="translate(25.054 18.579)">
          <rect id="Rectangle_324" data-name="Rectangle 324" width="176.076" height="188.719" rx="5.798" fill="#fff"/>
          <g id="Group_874" data-name="Group 874" transform="translate(11.551 10.93)">
            <rect id="Rectangle_325" data-name="Rectangle 325" width="44.397" height="4.254" fill="#cee8f0"/>
            <rect id="Rectangle_326" data-name="Rectangle 326" width="14.555" height="4.254" transform="translate(0 14.622)" fill="#cee8f0"/>
            <rect id="Rectangle_327" data-name="Rectangle 327" width="39.678" height="4.254" transform="translate(16.549 14.622)" fill="#cee8f0"/>
            <rect id="Rectangle_328" data-name="Rectangle 328" width="10.966" height="4.254" transform="translate(57.623 14.622)" fill="#cee8f0"/>
            <rect id="Rectangle_329" data-name="Rectangle 329" width="32.102" height="4.254" transform="translate(0 22.597)" fill="#cee8f0"/>
            <rect id="Rectangle_330" data-name="Rectangle 330" width="42.47" height="4.254" transform="translate(33.697 22.597)" fill="#cee8f0"/>
            <rect id="Rectangle_331" data-name="Rectangle 331" width="56.228" height="4.254" transform="translate(77.961 22.597)" fill="#cee8f0"/>
            <rect id="Rectangle_332" data-name="Rectangle 332" width="45.992" height="4.254" transform="translate(0 30.573)" fill="#cee8f0"/>
            <rect id="Rectangle_333" data-name="Rectangle 333" width="21.534" height="4.254" transform="translate(0 46.524)" fill="#cee8f0"/>
            <rect id="Rectangle_334" data-name="Rectangle 334" width="34.827" height="4.254" transform="translate(0 54.5)" fill="#cee8f0"/>
            <rect id="Rectangle_335" data-name="Rectangle 335" width="20.471" height="4.254" transform="translate(37.219 54.5)" fill="#cee8f0"/>
            <rect id="Rectangle_336" data-name="Rectangle 336" width="9.571" height="4.254" transform="translate(59.817 54.5)" fill="#cee8f0"/>
            <rect id="Rectangle_337" data-name="Rectangle 337" width="14.09" height="4.254" transform="translate(0 62.475)" fill="#cee8f0"/>
            <rect id="Rectangle_338" data-name="Rectangle 338" width="29.842" height="4.254" transform="translate(16.217 62.475)" fill="#cee8f0"/>
            <rect id="Rectangle_339" data-name="Rectangle 339" width="16.084" height="4.254" transform="translate(48.119 62.475)" fill="#cee8f0"/>
            <rect id="Rectangle_340" data-name="Rectangle 340" width="36.023" height="4.254" transform="translate(66.064 62.475)" fill="#cee8f0"/>
            <rect id="Rectangle_341" data-name="Rectangle 341" width="21.335" height="4.254" transform="translate(0 70.451)" fill="#cee8f0"/>
            <rect id="Rectangle_342" data-name="Rectangle 342" width="36.089" height="4.254" transform="translate(22.93 70.451)" fill="#cee8f0"/>
            <rect id="Rectangle_343" data-name="Rectangle 343" width="30.706" height="4.254" transform="translate(61.212 70.451)" fill="#cee8f0"/>
            <rect id="Rectangle_344" data-name="Rectangle 344" width="56.627" height="4.254" transform="translate(94.112 70.451)" fill="#cee8f0"/>
            <rect id="Rectangle_345" data-name="Rectangle 345" width="34.694" height="4.254" transform="translate(0 78.426)" fill="#cee8f0"/>
            <rect id="Rectangle_346" data-name="Rectangle 346" width="45.062" height="4.254" transform="translate(38.083 78.426)" fill="#cee8f0"/>
            <rect id="Rectangle_347" data-name="Rectangle 347" width="64.004" height="4.254" transform="translate(86.535 78.426)" fill="#cee8f0"/>
            <rect id="Rectangle_348" data-name="Rectangle 348" width="20.936" height="4.254" transform="translate(0 86.402)" fill="#cee8f0"/>
            <rect id="Rectangle_349" data-name="Rectangle 349" width="20.936" height="4.254" transform="translate(22.73 86.402)" fill="#cee8f0"/>
          </g>
        </g>
        <path id="Path_1325" data-name="Path 1325" d="M454.036,241.285V367.258a5.5,5.5,0,0,1-5.5,5.5H233.354a5.5,5.5,0,0,1-5.5-5.5V241.285a5.507,5.507,0,0,1,1.848-4.11l95.165,77.844,8.878,6.694a11.969,11.969,0,0,0,14.4,0l8.878-6.694,95.165-77.844A5.506,5.506,0,0,1,454.036,241.285Z" transform="translate(-227.854 -150.24)" fill="#d05369"/>
        <path id="Path_1326" data-name="Path 1326" d="M452.569,387.4a5.488,5.488,0,0,1-3.533,1.285H233.853a5.491,5.491,0,0,1-3.533-1.285l106.611-70.194a8.209,8.209,0,0,1,9.028,0Z" transform="translate(-228.353 -166.168)" fill="#b9203b"/>
        <g id="Group_877" data-name="Group 877" transform="translate(191.232 61.977)">
          <circle id="Ellipse_67" data-name="Ellipse 67" cx="21.393" cy="21.393" r="21.393" transform="translate(0 33.451) rotate(-51.428)" fill="#f16b5f"/>
          <g id="Group_876" data-name="Group 876" transform="translate(25.692 19.931)">
            <path id="Path_1327" data-name="Path 1327" d="M508.584,230.872V251.14h-4.69v-16.5H499.84v-3.764Z" transform="translate(-499.84 -230.872)" fill="#fff"/>
          </g>
        </g>
      </g>
    </g>
    <g id="Group_880" data-name="Group 880" transform="translate(124.716 137.15)">
      <path id="Path_1328" data-name="Path 1328" d="M252.719,166.831h0a7.045,7.045,0,0,0-7.045-7.045h0a7.045,7.045,0,0,0,7.045-7.045h0a7.045,7.045,0,0,0,7.045,7.045h0A7.045,7.045,0,0,0,252.719,166.831Z" transform="translate(-156.906 -149.279)" fill="#fff"/>
      <path id="Path_1329" data-name="Path 1329" d="M245.594,155.59h0a3.6,3.6,0,0,0-3.6-3.6h0a3.6,3.6,0,0,0,3.6-3.595h0a3.6,3.6,0,0,0,3.6,3.595h0A3.6,3.6,0,0,0,245.594,155.59Z" transform="translate(-156.162 -148.4)" fill="#fff"/>
      <path id="Path_1330" data-name="Path 1330" d="M552.8,249.331h0a7.045,7.045,0,0,0-7.045-7.045h0a7.045,7.045,0,0,0,7.045-7.045h0a7.045,7.045,0,0,0,7.046,7.045h0A7.045,7.045,0,0,0,552.8,249.331Z" transform="translate(-217.656 -165.98)" fill="#fff"/>
      <path id="Path_1331" data-name="Path 1331" d="M564.343,237.335h0a4.26,4.26,0,0,0-4.26-4.26h0a4.26,4.26,0,0,0,4.26-4.26h0a4.259,4.259,0,0,0,4.26,4.26h0A4.259,4.259,0,0,0,564.343,237.335Z" transform="translate(-220.556 -164.68)" fill="#fff"/>
      <path id="Path_1332" data-name="Path 1332" d="M147.886,318.831h0a7.045,7.045,0,0,0-7.046-7.045h0a7.045,7.045,0,0,0,7.046-7.045h0a7.045,7.045,0,0,0,7.045,7.045h0A7.045,7.045,0,0,0,147.886,318.831Z" transform="translate(-135.683 -180.05)" fill="#fff"/>
      <path id="Path_1333" data-name="Path 1333" d="M138.7,306.427h0a4.327,4.327,0,0,0-4.327-4.326h0a4.327,4.327,0,0,0,4.327-4.327h0a4.326,4.326,0,0,0,4.326,4.327h0A4.326,4.326,0,0,0,138.7,306.427Z" transform="translate(-134.374 -178.64)" fill="#fff"/>
      <path id="Path_1334" data-name="Path 1334" d="M504.469,188h0a7.045,7.045,0,0,0-7.045-7.045h0a7.045,7.045,0,0,0,7.045-7.046h0a7.045,7.045,0,0,0,7.045,7.046h0A7.045,7.045,0,0,0,504.469,188Z" transform="translate(-207.871 -153.564)" fill="#fff"/>
    </g>
    <g id="Group_920" data-name="Group 920" transform="translate(162.941 156.103)">
      <g id="Group_887" data-name="Group 887" transform="translate(1.021 82.241)">
        <g id="Group_884" data-name="Group 884">
          <g id="Group_881" data-name="Group 881" transform="translate(17.879 6.874)">
            <path id="Path_1335" data-name="Path 1335" d="M231.322,372.428s-.5.049-1.332.1c-2.345.183-7.282.5-10.631.374a13.693,13.693,0,0,1-2.592-.279c-3.19-.8-10.767-85.339-10.767-85.339l18.543-3.39a38.085,38.085,0,0,1,4.187,16.549C228.93,310.019,231.322,372.428,231.322,372.428Z" transform="translate(-206 -283.899)" fill="#ebebeb"/>
            <path id="Path_1336" data-name="Path 1336" d="M227.332,345.025a4.484,4.484,0,0,0,2-2.122" transform="translate(-210.319 -295.844)" fill="none" stroke="#0e293a" stroke-linecap="round" stroke-linejoin="round" stroke-width="0.5"/>
          </g>
          <g id="Group_883" data-name="Group 883">
            <path id="Path_1337" data-name="Path 1337" d="M210.937,327.919c.494,4.481-5.79,44.057-5.79,44.057a17.293,17.293,0,0,1-1.93-.08,102.993,102.993,0,0,1-10.432-1.628c-.861-.175-1.388-.286-1.388-.286l2.887-37.278s-10.273-37.884-10.671-44.663a19.122,19.122,0,0,1,3.294-11.669l31.3-1.092,2.09,8.566-15.648,5.391S210.434,323.428,210.937,327.919Z" transform="translate(-183.582 -275.28)" fill="#fff"/>
            <g id="Group_882" data-name="Group 882" transform="translate(2.509 7.805)">
              <path id="Path_1338" data-name="Path 1338" d="M210.334,347.265a3.013,3.013,0,0,0,1.991-1.2" transform="translate(-191.507 -297.415)" fill="none" stroke="#0e293a" stroke-linecap="round" stroke-linejoin="round" stroke-width="0.5"/>
              <path id="Path_1339" data-name="Path 1339" d="M210.333,293.4s5.65,35.292,6.015,38.183-2.426,22.83-2.426,22.83" transform="translate(-191.506 -286.753)" fill="none" stroke="#0e293a" stroke-linecap="round" stroke-linejoin="round" stroke-width="0.5"/>
              <path id="Path_1340" data-name="Path 1340" d="M186.945,285.066s-.8,6.912.664,11.963,9.172,38.548,9.172,38.548L194.388,371.6" transform="translate(-186.728 -285.066)" fill="none" stroke="#0e293a" stroke-linecap="round" stroke-linejoin="round" stroke-width="0.5"/>
            </g>
          </g>
        </g>
        <g id="Group_885" data-name="Group 885" transform="translate(8.009 93.985)">
          <path id="Path_1341" data-name="Path 1341" d="M217.678,404.149a.8.8,0,0,1-.63.3H195.984a1.6,1.6,0,0,1-1.579-1.363,13.262,13.262,0,0,1,.367-5.08c.024-.5.088-1.755.183-3.622a102.993,102.993,0,0,0,10.432,1.628l-.407,2.432.12.041s6.612,4.561,11.908,3.875a.815.815,0,0,1,.774.3A1.135,1.135,0,0,1,217.678,404.149Z" transform="translate(-193.762 -393.376)" fill="#d48f65"/>
          <path id="Path_1342" data-name="Path 1342" d="M217.2,404.218a.577.577,0,0,0,.568-.548c.038-.626.087-1.346-.29-1.712a11.117,11.117,0,0,0-2.269-1.469,17.694,17.694,0,0,0-2.9-1.389,10.219,10.219,0,0,0-4.756-.838,7.516,7.516,0,0,0,.839-1.682,2.528,2.528,0,0,0-.073-1.838,3.086,3.086,0,0,0-1.834-1.38,4.205,4.205,0,0,0-1.754-.223c-2.147.205-2.712,1.905-3.347,3.413a4.186,4.186,0,0,1-2.063,2.494c-1.261.479-2.669-.248-3.649-1.175,0,0-1.152-.689-1.65-.042s-.648,5.733.249,6.231C195.087,404.513,213.744,404.268,217.2,404.218Z" transform="translate(-193.624 -393.122)" fill="#f16b5f"/>
        </g>
        <g id="Group_886" data-name="Group 886" transform="translate(31.088 93.985)">
          <path id="Path_1343" data-name="Path 1343" d="M246.8,404.281a.672.672,0,0,1-.582.3H225.151a1.9,1.9,0,0,1-1.763-1.363,12.832,12.832,0,0,1-.3-5.447l-.343-2.362c3.35.128,8.287-.191,10.631-.374.032,2.28.048,3.581.048,3.581s7.25,4.561,12.45,3.875a.93.93,0,0,1,.821.3A1.151,1.151,0,0,1,246.8,404.281Z" transform="translate(-222.6 -393.508)" fill="#d48f65"/>
          <path id="Path_1344" data-name="Path 1344" d="M246.139,404.218a.577.577,0,0,0,.568-.548c.038-.626.087-1.346-.29-1.712a11.1,11.1,0,0,0-2.269-1.469,17.7,17.7,0,0,0-2.9-1.389,10.217,10.217,0,0,0-4.756-.838,7.482,7.482,0,0,0,.839-1.682,2.524,2.524,0,0,0-.073-1.838,3.087,3.087,0,0,0-1.833-1.38,4.209,4.209,0,0,0-1.755-.223c-2.147.205-2.712,1.905-3.347,3.413a4.183,4.183,0,0,1-2.063,2.494c-1.26.479-2.669-.248-3.648-1.175,0,0-1.152-.689-1.651-.042s-.648,5.733.25,6.231C224.024,404.513,242.681,404.268,246.139,404.218Z" transform="translate(-222.561 -393.122)" fill="#f16b5f"/>
        </g>
      </g>
      <g id="Group_910" data-name="Group 910" transform="translate(0 21.263)">
        <g id="Group_891" data-name="Group 891" transform="translate(24.118 15.186)">
          <path id="Path_1345" data-name="Path 1345" d="M287.645,223.4a5.432,5.432,0,0,0-2.8.6s3.1-2.221,3.211-2.907-4.223,1.57-4.223,1.57,3.217-2.874,3.071-3.493-4.161,2.124-4.161,2.124,3.146-3.156,2.852-3.375c-.729-.546-5.265,3.764-5.664,3.231-.353-.472.273-1.893.716-2.562a.265.265,0,0,0-.1-.395,1,1,0,0,0-1.329.431,14.561,14.561,0,0,0-2.768,5.695c-1.283.73-3.26,1.852-5.7,3.233,1.384,2.214,2.767,4.43,4.06,6.7a68.238,68.238,0,0,0,6.338-7.611l-.049-.053c2.22-.664,5.395-1.749,6.643-2.846A.19.19,0,0,0,287.645,223.4Z" transform="translate(-224.324 -217.865)" fill="#d48f65"/>
          <g id="Group_890" data-name="Group 890" transform="translate(0 2.318)">
            <g id="Group_889" data-name="Group 889" transform="translate(13.724 3.492)">
              <path id="Path_1346" data-name="Path 1346" d="M229.75,241.2s13.259,8.074,16.45,8.274,23.927-14.555,27.117-18.642l-5.782-5.683L247.4,237.014l-16.151-9.072Z" transform="translate(-229.75 -225.15)" fill="#e2edf0"/>
              <g id="Group_888" data-name="Group 888" transform="translate(0.742)">
                <path id="Path_1347" data-name="Path 1347" d="M236.813,232.28c-.407,2.425-4.107,9.563-5.041,11.333-.431-.256-.8-.471-1.093-.655.973-1.858,4.634-8.932,5.009-11.309Z" transform="translate(-230.68 -226.465)" fill="#0e293a"/>
                <line id="Line_27" data-name="Line 27" x1="22.531" y2="13.259" transform="translate(14.512)" fill="none" stroke="#0e293a" stroke-linecap="round" stroke-linejoin="round" stroke-width="0.5"/>
                <line id="Line_28" data-name="Line 28" x2="2.193" y2="0.15" transform="translate(14.711 11.714)" fill="none" stroke="#0e293a" stroke-linecap="round" stroke-linejoin="round" stroke-width="0.5"/>
                <line id="Line_29" data-name="Line 29" x2="4.935" y2="4.935" transform="translate(36.444 1.396)" fill="none" stroke="#0e293a" stroke-linecap="round" stroke-linejoin="round" stroke-width="0.5"/>
                <path id="Path_1348" data-name="Path 1348" d="M249.5,253.066l1.2.133" transform="translate(-234.49 -230.801)" fill="none" stroke="#0e293a" stroke-linecap="round" stroke-linejoin="round" stroke-width="0.5"/>
              </g>
            </g>
            <path id="Path_1349" data-name="Path 1349" d="M212.608,228.052s5.982,9.371,14.157,13.16c0,0,5.384-10.069,5.284-12.163,0,0-12.063-8.474-14.256-8.275S212.01,222.569,212.608,228.052Z" transform="translate(-212.542 -220.771)" fill="#f16b5f"/>
          </g>
        </g>
        <g id="Group_896" data-name="Group 896" transform="translate(1.35)">
          <g id="Group_892" data-name="Group 892" transform="translate(11.709)">
            <path id="Path_1350" data-name="Path 1350" d="M199.535,213.608a7.907,7.907,0,0,1-.86.325c2.142,1.355,4.218,2.819,6.49,4.2,1.124.683,2.26,1.344,3.4,2.006a11.34,11.34,0,0,1,3.965-5.822,5.854,5.854,0,0,1-.42-.463c-.141-.51-.467-1.749-.712-3.15a14.792,14.792,0,0,1-.263-3.714v0a3.225,3.225,0,0,1,.367-1.336l-12.137-6.826c.01.041.014.077.023.118C199.575,200.07,201.039,208.919,199.535,213.608Z" transform="translate(-198.675 -198.824)" fill="#d48f65"/>
            <path id="Path_1351" data-name="Path 1351" d="M212.067,211.856c-6.6.833-9.941-7.047-10.064-7.341a7.783,7.783,0,0,0,4.71,3.378,12.926,12.926,0,0,0,5.049.258c.014,0,.027,0,.041-.01A14.792,14.792,0,0,0,212.067,211.856Z" transform="translate(-199.349 -199.976)" fill="#0e293a"/>
          </g>
          <g id="Group_895" data-name="Group 895" transform="translate(0 14.483)">
            <g id="Group_893" data-name="Group 893">
              <path id="Path_1352" data-name="Path 1352" d="M185.461,277.649s-1.129,3.988-1.462,4.985,17.785,3.641,21.534,4.121c4.211.54,12.369-.719,15.284-1.21a.83.83,0,0,0,.613-1.168l-1.939-4.2Z" transform="translate(-183.994 -229.264)" fill="#e2edf0"/>
              <path id="Path_1353" data-name="Path 1353" d="M196.875,217.847l2.393-.864s4.542,4.038,7.643,3.822c2.858-.2,4.819-3.423,4.819-3.423l.4.266,1.5,1.961s-4.087,5.549-8.175,4.686S196.875,217.847,196.875,217.847Z" transform="translate(-186.602 -216.983)" fill="#e2edf0"/>
              <path id="Path_1354" data-name="Path 1354" d="M221.24,283.912c-2.584-.023-27.763-.279-36.48-3.014.191-.647.383-1.317.542-1.858,8.079,2.607,31.575,2.911,35.045,2.934Z" transform="translate(-184.149 -229.546)" fill="#0e293a"/>
            </g>
            <g id="Group_894" data-name="Group 894" transform="translate(1.001 0.183)">
              <path id="Path_1355" data-name="Path 1355" d="M188.706,221.15s1.429-3.165,7.436-3.938c0,0,3.531,6.065,8.516,5.865s5.492-5.117,5.492-5.117,6.538,4.852,7.137,5.583.066,9.9-.731,13.491-.2,18.743-.2,18.743,3.855,13.226,4.52,14.622c0,0-27.051-.132-35.624-2.991,0,0,3.057-11.9,4.453-15.752s-3.256-21.8-2.858-25.122A12.621,12.621,0,0,1,188.706,221.15Z" transform="translate(-185.25 -217.212)" fill="#f16b5f"/>
              <path id="Path_1356" data-name="Path 1356" d="M198.625,219.545s9.471,11.565,14.505.648" transform="translate(-187.958 -217.684)" fill="none" stroke="#0e293a" stroke-linecap="round" stroke-linejoin="round" stroke-width="0.5"/>
            </g>
          </g>
        </g>
        <g id="Group_909" data-name="Group 909" transform="translate(0 16.31)">
          <g id="Group_901" data-name="Group 901">
            <g id="Group_900" data-name="Group 900" transform="translate(0 21.933)">
              <g id="Group_898" data-name="Group 898">
                <g id="Group_897" data-name="Group 897" transform="translate(25.268 15.312)">
                  <path id="Path_1357" data-name="Path 1357" d="M213.983,273.733a68.594,68.594,0,0,0,9.736-2.523l-.008-.072-.582-4.347a.334.334,0,0,1-.056-.008c-.435-.045-3.323-.347-7.612-.81Q214.655,269.85,213.983,273.733Z" transform="translate(-213.983 -265.974)" fill="#d48f65"/>
                </g>
                <path id="Path_1358" data-name="Path 1358" d="M182.958,246.875s-2.094,17.845,1.2,21.633,32.5,1.2,32.5,1.2l-5.583-8.673-16.45-1,.4-13.259Z" transform="translate(-182.302 -246.775)" fill="#e2edf0"/>
              </g>
              <g id="Group_899" data-name="Group 899" transform="translate(0.461 0.841)">
                <path id="Path_1359" data-name="Path 1359" d="M195.083,248.843l-.032,1.2-12.171-1.022c.04-.478.08-.877.112-1.188Z" transform="translate(-182.88 -247.829)" fill="#0e293a"/>
                <path id="Path_1360" data-name="Path 1360" d="M194.755,260.712l1.894,2.143-4.337-.05" transform="translate(-184.79 -250.437)" fill="none" stroke="#0e293a" stroke-linecap="round" stroke-linejoin="round" stroke-width="0.5"/>
                <line id="Line_30" data-name="Line 30" x2="3.14" y2="5.084" transform="translate(29.605 16.655)" fill="none" stroke="#0e293a" stroke-linecap="round" stroke-linejoin="round" stroke-width="0.5"/>
                <path id="Path_1361" data-name="Path 1361" d="M184.484,271.737a1.582,1.582,0,0,0,.946,1.052" transform="translate(-183.205 -252.669)" fill="none" stroke="#0e293a" stroke-linecap="round" stroke-linejoin="round" stroke-width="0.5"/>
              </g>
            </g>
            <path id="Path_1362" data-name="Path 1362" d="M182.375,242.005s-.2-21.235,7.676-22.631,6.181,12.063,5.384,23.727Z" transform="translate(-182.316 -219.274)" fill="#f16b5f"/>
          </g>
          <g id="Group_908" data-name="Group 908" transform="translate(11.789 13.374)">
            <g id="Group_907" data-name="Group 907">
              <g id="Group_902" data-name="Group 902">
                <path id="Path_1363" data-name="Path 1363" d="M230.57,258.71H199.443l-2.353-21.467a1.082,1.082,0,0,1,1.076-1.2h28.95a1.083,1.083,0,0,1,1.076.964Z" transform="translate(-197.084 -236.043)" fill="#0e293a"/>
                <path id="Path_1364" data-name="Path 1364" d="M231.671,258.71H200.543l-2.352-21.467a1.082,1.082,0,0,1,1.076-1.2h28.949a1.082,1.082,0,0,1,1.076.964Z" transform="translate(-197.307 -236.043)" fill="#1d5578"/>
                <path id="Path_1365" data-name="Path 1365" d="M231.469,257.16,229.4,238.245H198.269l2.073,18.916Z" transform="translate(-197.324 -236.489)" fill="#fff"/>
                <path id="Path_1366" data-name="Path 1366" d="M245.594,267.337H200.385L200,264.464h45.209Z" transform="translate(-197.674 -241.797)" fill="#0e293a"/>
              </g>
              <g id="Group_906" data-name="Group 906" transform="translate(8.356 2.875)">
                <g id="Group_903" data-name="Group 903" transform="translate(0 3.651)">
                  <path id="Path_1367" data-name="Path 1367" d="M225.26,244.606l.818,9.857a.39.39,0,0,1-.395.43H208.848a.464.464,0,0,1-.286-.1.472.472,0,0,1-.181-.329l-.818-9.857a.4.4,0,0,1,.118-.321l7.952,6.091.738.523a.936.936,0,0,0,1.127,0l.651-.523,6.94-6.091A.472.472,0,0,1,225.26,244.606Z" transform="translate(-207.561 -244.237)" fill="#fbac4d"/>
                  <path id="Path_1368" data-name="Path 1368" d="M226.205,256.039a.394.394,0,0,1-.268.1H209.1a.464.464,0,0,1-.286-.1l7.885-5.492a.642.642,0,0,1,.707,0Z" transform="translate(-207.815 -245.483)" fill="#fbbc71"/>
                  <path id="Path_1369" data-name="Path 1369" d="M207.653,244.326a.244.244,0,0,1,.242-.1h17.015a.282.282,0,0,1,.262.117l-7.8,7.3a.645.645,0,0,1-.707,0Z" transform="translate(-207.58 -244.225)" fill="#d68c34"/>
                </g>
                <g id="Group_905" data-name="Group 905" transform="translate(14.749)">
                  <ellipse id="Ellipse_68" data-name="Ellipse 68" cx="2.171" cy="2.358" rx="2.171" ry="2.358" transform="translate(0 3.133) rotate(-46.195)" fill="#f16b5f"/>
                  <g id="Group_904" data-name="Group 904" transform="translate(2.653 2.128)">
                    <path id="Path_1370" data-name="Path 1370" d="M230.306,242.315l.178,2.143h-.5l-.145-1.745h-.428l-.034-.4Z" transform="translate(-229.381 -242.315)" fill="#fff"/>
                  </g>
                </g>
              </g>
            </g>
            <path id="Path_1371" data-name="Path 1371" d="M222.812,266.811s2.293-4.362,4.063-5.06-.873,2.991-.1,3.141,4.653-1.77,5.824-1.546-2.043,1.845-2.043,1.845a.822.822,0,0,1,.98.873,1.031,1.031,0,0,1,.608,1.31,1.06,1.06,0,0,1,.015,1.407c-.6.773-6.879,1.919-8.051,1.77S222.812,266.811,222.812,266.811Z" transform="translate(-202.292 -241.23)" fill="#d48f65"/>
          </g>
        </g>
      </g>
      <g id="Group_919" data-name="Group 919" transform="translate(10.259 0)">
        <g id="Group_917" data-name="Group 917" transform="translate(0 4.063)">
          <path id="Path_1372" data-name="Path 1372" d="M215.089,181.13c-1.586-4.076-9.058-5.661-14.266-1.132-2.421,2.1-2.929,5.918-2.785,9.4a1.868,1.868,0,0,0-.313-.128,2.167,2.167,0,0,0-2.443,1.531,2.87,2.87,0,0,0,.372,2.39,3.6,3.6,0,0,0,1.642,1.372,4.616,4.616,0,0,0,1.412.139,10.521,10.521,0,0,0,3.47,5.906,9.518,9.518,0,0,0,8.09,2.048c2.255-.468,5.592-1.913,6.42-4.254a5.935,5.935,0,0,0,.243-1.913C216.993,191.558,216.9,185.79,215.089,181.13Z" transform="translate(-195.165 -177.259)" fill="#d48f65"/>
          <g id="Group_916" data-name="Group 916" transform="translate(0.898 6.918)">
            <g id="Group_913" data-name="Group 913" transform="translate(11.287 3.764)">
              <g id="Group_911" data-name="Group 911" transform="translate(5.792 0)">
                <ellipse id="Ellipse_69" data-name="Ellipse 69" cx="0.669" cy="1.369" rx="0.669" ry="1.369" fill="#0e293a"/>
              </g>
              <g id="Group_912" data-name="Group 912">
                <path id="Path_1373" data-name="Path 1373" d="M211.782,192.021c0,.756-.3,1.369-.668,1.369s-.669-.613-.669-1.369.3-1.369.669-1.369S211.782,191.265,211.782,192.021Z" transform="translate(-210.444 -190.652)" fill="#0e293a"/>
              </g>
            </g>
            <g id="Group_914" data-name="Group 914" transform="translate(12.342 9.275)">
              <path id="Path_1374" data-name="Path 1374" d="M216.787,197.562a3.287,3.287,0,0,1-1.008,1.146,2.563,2.563,0,0,1-1.5.5,2.591,2.591,0,0,1-1.49-.514,4.863,4.863,0,0,1-.577-.514c-.158-.2-.311-.405-.449-.615.207.151.395.312.584.468.211.128.4.285.612.392a2.768,2.768,0,0,0,1.322.376,2.694,2.694,0,0,0,1.328-.359A5.762,5.762,0,0,0,216.787,197.562Z" transform="translate(-211.766 -197.562)" fill="#0e293a"/>
              <path id="Path_1375" data-name="Path 1375" d="M215.439,200.605a1.1,1.1,0,0,1-.7.238,1.15,1.15,0,0,1-.7-.238,3.66,3.66,0,0,0,.705.079A3.006,3.006,0,0,0,215.439,200.605Z" transform="translate(-212.225 -198.178)" fill="#0e293a"/>
            </g>
            <g id="Group_915" data-name="Group 915" transform="translate(9.366)">
              <path id="Path_1376" data-name="Path 1376" d="M211.85,186.318a1.585,1.585,0,0,0-1.036-.384,3.2,3.2,0,0,0-1.1.157,2.686,2.686,0,0,0-.972.557,2.82,2.82,0,0,0-.663.85.32.32,0,0,0,.5.392l.027-.026a3.963,3.963,0,0,1,.66-.524,2.311,2.311,0,0,1,.729-.3,2.827,2.827,0,0,1,.79-.077,3.036,3.036,0,0,0,.845-.049l.085-.021a.335.335,0,0,0,.246-.405A.33.33,0,0,0,211.85,186.318Z" transform="translate(-208.035 -185.933)" fill="#0e293a"/>
              <path id="Path_1377" data-name="Path 1377" d="M216.98,186.318a1.585,1.585,0,0,1,1.036-.384,3.21,3.21,0,0,1,1.1.157,2.676,2.676,0,0,1,.971.557,2.823,2.823,0,0,1,.664.85.32.32,0,0,1-.5.392l-.027-.026a3.964,3.964,0,0,0-.66-.524,2.315,2.315,0,0,0-.73-.3,2.824,2.824,0,0,0-.79-.077,3.038,3.038,0,0,1-.845-.049l-.085-.021a.335.335,0,0,1-.246-.405A.329.329,0,0,1,216.98,186.318Z" transform="translate(-209.823 -185.933)" fill="#0e293a"/>
            </g>
            <path id="Path_1378" data-name="Path 1378" d="M216.307,189.586c.118.516.206,1.029.3,1.536s.192,1.011.337,1.491c.033.12.07.238.113.353a1.272,1.272,0,0,1,.116.441.89.89,0,0,1-.48.812,1.08,1.08,0,0,1-.873.047,2.117,2.117,0,0,1-.691-.414c.48.181,1.041.321,1.378.066a.528.528,0,0,0,.238-.488.989.989,0,0,0-.1-.3c-.052-.128-.1-.257-.136-.387a7.342,7.342,0,0,1-.251-1.575A8.425,8.425,0,0,1,216.307,189.586Z" transform="translate(-200.105 -186.672)" fill="#0e293a"/>
            <path id="Path_1379" data-name="Path 1379" d="M196.292,194.732a1.142,1.142,0,0,1,.356-.906,1.06,1.06,0,0,1,1.033-.1,1.949,1.949,0,0,1,.834.609,3.118,3.118,0,0,1,.518.874.228.228,0,0,1-.374.246l-.015-.015a2.023,2.023,0,0,0-.766-.542.354.354,0,0,0-.322.036.854.854,0,0,0-.23.355c-.117.3-.187.652.069.79a1.717,1.717,0,0,0,1.014.069,1.6,1.6,0,0,1-1.113.149.627.627,0,0,1-.393-.525,1.623,1.623,0,0,1,.065-.606,1.14,1.14,0,0,1,.325-.559.767.767,0,0,1,.7-.145,2.209,2.209,0,0,1,1,.672l-.389.23a2.448,2.448,0,0,0-1.051-1.315.857.857,0,0,0-.778-.047A1.142,1.142,0,0,0,196.292,194.732Z" transform="translate(-196.292 -187.493)" fill="#0e293a"/>
          </g>
        </g>
        <g id="Group_918" data-name="Group 918" transform="translate(1.739)">
          <path id="Path_1380" data-name="Path 1380" d="M204.979,184.253s-1.591,4.96-2.592,6.248a4.5,4.5,0,0,0-.687,1.419.654.654,0,0,1-1.193.115c-.643-1.144-1.677-2.347-3.142-2.2,0,0-.561-7.87,4.157-9.764Z" transform="translate(-197.345 -173.764)" fill="#1e587d"/>
          <path id="Path_1381" data-name="Path 1381" d="M217.587,181.728a12,12,0,0,0-7.316-.214c-1.405.408-2.744,1.071-4.163,1.413s-3.188.631-4.112-.595a5.157,5.157,0,0,1-.926-3.859,4.844,4.844,0,0,1,2.086-3.273,12.377,12.377,0,0,1,3.13-1.129A4.395,4.395,0,0,0,209,172.164a4.247,4.247,0,0,1-.829,2.685,5.765,5.765,0,0,1,3.258-.605,19.5,19.5,0,0,0,3.31.131,3.827,3.827,0,0,0,2.867-1.59,8.692,8.692,0,0,1-.638,4A7.959,7.959,0,0,1,217.587,181.728Z" transform="translate(-198.086 -172.164)" fill="#0e293a"/>
        </g>
      </g>
    </g>
    <g id="Group_922" data-name="Group 922" transform="translate(86.667 341.941)">
      <g id="Group_921" data-name="Group 921">
        <path id="Path_1382" data-name="Path 1382" d="M545.77,406.768H87.488a.8.8,0,1,1,0-1.6H545.77a.8.8,0,1,1,0,1.6Z" transform="translate(-86.667 -405.173)" fill="#048fa6"/>
      </g>
    </g>
  </g>
</svg>
