<svg xmlns="http://www.w3.org/2000/svg" width="42.909" height="47.816" viewBox="0 0 42.909 47.816">
    <defs>
        <style>
            .cls-1{fill:#717171;stroke:#717171;stroke-width:.5px}
        </style>
    </defs>
    <g id="house" transform="translate(-16.615 1.25)">
        <g id="Group_2485" data-name="Group 2485" transform="translate(16.875 -1)">
            <g id="Group_2484" data-name="Group 2484">
                <path id="Path_7298" d="M58.689 16.44L41.309.36a4.562 4.562 0 0 0-6.5 0l-5.817 5.517V3.749h.756a.73.73 0 0 0 .756-.788V-.192a.73.73 0 0 0-.756-.788H20.68a.73.73 0 0 0-.756.788v3.153a.73.73 0 0 0 .756.788h.756v9.065l-4 3.626a1.911 1.911 0 0 0-.453 1.971 1.749 1.749 0 0 0 1.587 1.1h2.871v22.075h-.761a.73.73 0 0 0-.756.788v3.153a.73.73 0 0 0 .756.788h34.76a.8.8 0 0 0 .756-.867V42.3a.73.73 0 0 0-.227-.552.673.673 0 0 0-.529-.236h-.756V19.436h2.871a1.574 1.574 0 0 0 1.587-1.1 1.78 1.78 0 0 0-.453-1.896zm-.982 1.419a.23.23 0 0 1-.151.079h-3.628a.73.73 0 0 0-.756.788v23.648a.73.73 0 0 0 .756.788h.756v1.577H21.435v-1.576h.756a.73.73 0 0 0 .756-.788V18.726a.73.73 0 0 0-.756-.788h-3.627c-.076 0-.151 0-.151-.079a.3.3 0 0 1 .076-.236l4.232-3.784a.917.917 0 0 0 .227-.631V2.961a.73.73 0 0 0-.756-.788h-.756V.6h7.556v1.573h-.756a.73.73 0 0 0-.756.788V7.69a1.1 1.1 0 0 0 .453.867.8.8 0 0 0 .831-.158l7.1-6.779a3.011 3.011 0 0 1 4.383 0L57.631 17.7c.075 0 .151.08.075.159z" class="cls-1" data-name="Path 7298" transform="translate(-16.875 1)"/>
                <path id="Path_7299" d="M143.755 195.48h-8.58a.711.711 0 0 0-.78.723v2.897a.711.711 0 0 0 .78.723h.78v4.267c0 2.676-2.73 5.135-5.772 5.135h-5.928v-.725a.711.711 0 0 0-.78-.723h-3.12a.711.711 0 0 0-.78.723v7.956a.711.711 0 0 0 .78.723h3.12a.711.711 0 0 0 .78-.723v-.723h5.928c7.02 0 12.792-5.207 12.792-11.644v-4.267h.78a.711.711 0 0 0 .78-.723V196.2a.711.711 0 0 0-.78-.72zm-21.061 20.25h-1.56v-6.509h1.56v6.509zm18.721-11.644c0 5.641-5.07 10.2-11.232 10.2h-5.928v-3.616h5.928c3.9 0 7.332-3.038 7.332-6.581v-4.267h3.9zm1.56-5.714h-7.02v-1.447h7.02v1.447z" class="cls-1" data-name="Path 7299" transform="translate(-110.87 -174.923)"/>
            </g>
        </g>
    </g>
</svg>
