<svg xmlns="http://www.w3.org/2000/svg" id="prefix__instagram" width="22.264" height="22.264" viewBox="0 0 22.264 22.264">
    <defs>
        <style>
            .prefix__cls-1{fill:#b9203b}
        </style>
    </defs>
    <path id="prefix__Path_26324" d="M211.261 209.131a2.131 2.131 0 11-2.13-2.131 2.131 2.131 0 012.13 2.131zm0 0" class="prefix__cls-1" data-name="Path 26324" transform="translate(-197.999 -197.999)"/>
    <path id="prefix__Path_26325" d="M145.708 136.959a2.117 2.117 0 00-1.213-1.213 3.536 3.536 0 00-1.187-.22c-.674-.031-.876-.037-2.583-.037s-1.909.006-2.583.037a3.539 3.539 0 00-1.187.22 2.118 2.118 0 00-1.213 1.213 3.538 3.538 0 00-.22 1.187c-.031.674-.037.876-.037 2.583s.007 1.909.037 2.583a3.536 3.536 0 00.22 1.187 2.117 2.117 0 001.213 1.213 3.532 3.532 0 001.187.22c.674.031.876.037 2.583.037s1.909-.006 2.583-.037a3.532 3.532 0 001.187-.22 2.117 2.117 0 001.213-1.213 3.539 3.539 0 00.22-1.187c.031-.674.037-.876.037-2.583s-.006-1.909-.037-2.583a3.532 3.532 0 00-.22-1.187zm-4.983 7.052a3.282 3.282 0 113.282-3.282 3.282 3.282 0 01-3.282 3.282zm3.412-5.927a.767.767 0 11.767-.767.767.767 0 01-.767.767zm0 0" class="prefix__cls-1" data-name="Path 26325" transform="translate(-129.593 -129.597)"/>
    <path id="prefix__Path_26326" d="M11.132 0a11.132 11.132 0 1011.132 11.132A11.133 11.133 0 0011.132 0zm6.354 13.767a4.69 4.69 0 01-.3 1.552 3.268 3.268 0 01-1.869 1.869 4.693 4.693 0 01-1.551.3c-.682.031-.9.039-2.635.039s-1.954-.007-2.636-.039a4.693 4.693 0 01-1.551-.3 3.268 3.268 0 01-1.869-1.869 4.689 4.689 0 01-.3-1.551c-.031-.682-.039-.9-.039-2.636s.007-1.954.039-2.635a4.69 4.69 0 01.3-1.552 3.271 3.271 0 011.87-1.869 4.694 4.694 0 011.552-.3c.682-.031.9-.039 2.635-.039s1.954.007 2.635.039a4.7 4.7 0 011.552.3 3.269 3.269 0 011.869 1.87 4.689 4.689 0 01.3 1.552c.031.682.038.9.038 2.635s-.009 1.953-.041 2.634zm0 0" class="prefix__cls-1" data-name="Path 26326"/>
</svg>
