<svg xmlns="http://www.w3.org/2000/svg" width="18.357" height="18.358" viewBox="0 0 18.357 18.358">
  <path id="Path_204" data-name="Path 204" d="M9.179,1.632a28.144,28.144,0,0,1,3.672.1,4.73,4.73,0,0,1,1.734.306,3.582,3.582,0,0,1,1.734,1.734,4.73,4.73,0,0,1,.306,1.734c0,.918.1,1.224.1,3.672a28.144,28.144,0,0,1-.1,3.672,4.73,4.73,0,0,1-.306,1.734,3.582,3.582,0,0,1-1.734,1.734,4.73,4.73,0,0,1-1.734.306c-.918,0-1.224.1-3.672.1a28.144,28.144,0,0,1-3.672-.1,4.73,4.73,0,0,1-1.734-.306A3.582,3.582,0,0,1,2.04,14.584a4.73,4.73,0,0,1-.306-1.734c0-.918-.1-1.224-.1-3.672a28.144,28.144,0,0,1,.1-3.672A4.73,4.73,0,0,1,2.04,3.774a3.663,3.663,0,0,1,.714-1.02,1.724,1.724,0,0,1,1.02-.714,4.73,4.73,0,0,1,1.734-.306,28.144,28.144,0,0,1,3.672-.1M9.179,0A30.134,30.134,0,0,0,5.405.1,6.3,6.3,0,0,0,3.162.51,3.993,3.993,0,0,0,1.53,1.53,3.993,3.993,0,0,0,.51,3.162,4.647,4.647,0,0,0,.1,5.405,30.134,30.134,0,0,0,0,9.179a30.134,30.134,0,0,0,.1,3.774A6.3,6.3,0,0,0,.51,15.2a3.993,3.993,0,0,0,1.02,1.632,3.993,3.993,0,0,0,1.632,1.02,6.3,6.3,0,0,0,2.244.408,30.134,30.134,0,0,0,3.774.1,30.134,30.134,0,0,0,3.774-.1,6.3,6.3,0,0,0,2.244-.408A4.279,4.279,0,0,0,17.848,15.2a6.3,6.3,0,0,0,.408-2.244c0-1.02.1-1.326.1-3.774a30.134,30.134,0,0,0-.1-3.774,6.3,6.3,0,0,0-.408-2.244,3.992,3.992,0,0,0-1.02-1.632A3.993,3.993,0,0,0,15.2.51,6.3,6.3,0,0,0,12.952.1,30.134,30.134,0,0,0,9.179,0m0,4.487A4.616,4.616,0,0,0,4.487,9.179,4.691,4.691,0,1,0,9.179,4.487m0,7.751a3,3,0,0,1-3.06-3.06,3,3,0,0,1,3.06-3.06,3,3,0,0,1,3.06,3.06,3,3,0,0,1-3.06,3.06m4.9-9.077A1.122,1.122,0,1,0,15.2,4.283a1.132,1.132,0,0,0-1.122-1.122" fill="#b9203b" fill-rule="evenodd"/>
</svg>
