<svg id="linked-in-logo-of-two-letters" xmlns="http://www.w3.org/2000/svg" width="20.097" height="18.358" viewBox="0 0 20.097 18.358">
  <g id="Group_2451" data-name="Group 2451" transform="translate(0 0)">
    <path id="Path_7281" data-name="Path 7281" d="M.653,191.575H3.265a.653.653,0,0,0,.653-.653V179.5a.653.653,0,0,0-.653-.653H.653A.653.653,0,0,0,0,179.5v11.42A.653.653,0,0,0,.653,191.575Z" transform="translate(0 -173.217)" fill="#b9203b"/>
    <path id="Path_7282" data-name="Path 7282" d="M.653,27.541H3.265a.653.653,0,0,0,.653-.653v-2.32a.653.653,0,0,0-.653-.653H.653A.653.653,0,0,0,0,24.569v2.32A.653.653,0,0,0,.653,27.541Z" transform="translate(0 -23.916)" fill="#b9203b"/>
    <path id="Path_7283" data-name="Path 7283" d="M194.057,171.3a3.973,3.973,0,0,0-1.624-1.192,5.881,5.881,0,0,0-2.37-.467,5.8,5.8,0,0,0-4.461,2.009c-.243.267-.419.208-.419-.152v-.87a.653.653,0,0,0-.653-.653H182.2a.653.653,0,0,0-.653.653v11.42a.653.653,0,0,0,.653.653h2.613a.653.653,0,0,0,.653-.653V178.08a12.776,12.776,0,0,1,.3-3.4,2.809,2.809,0,0,1,1.108-1.478,3.142,3.142,0,0,1,1.827-.558,2.331,2.331,0,0,1,1.359.391,2.175,2.175,0,0,1,.816,1.094,11.676,11.676,0,0,1,.251,3.1v4.822a.653.653,0,0,0,.653.653h2.613a.653.653,0,0,0,.653-.653v-6.467a12.248,12.248,0,0,0-.216-2.635A4.316,4.316,0,0,0,194.057,171.3Z" transform="translate(-174.944 -164.347)" fill="#b9203b"/>
  </g>
</svg>
