<svg xmlns="http://www.w3.org/2000/svg" width="22.264" height="22.264" viewBox="0 0 22.264 22.264">
    <path id="prefix__linkedin" d="M11.132 0a11.132 11.132 0 1011.132 11.132A11.133 11.133 0 0011.132 0zM7.9 16.828H5.186V8.672H7.9zm-1.358-9.27h-.018A1.413 1.413 0 116.56 4.74a1.414 1.414 0 11-.018 2.818zm11.131 9.27h-2.711v-4.363c0-1.1-.393-1.844-1.373-1.844a1.484 1.484 0 00-1.391.991 1.857 1.857 0 00-.089.662v4.555H9.4s.035-7.391 0-8.156h2.711v1.154a2.691 2.691 0 012.441-1.347c1.784 0 3.121 1.166 3.121 3.671zm0 0" style="fill:#b9203b"/>
</svg>
