<svg xmlns="http://www.w3.org/2000/svg" width="40.122" height="32.041" viewBox="0 0 40.122 32.041">
    <defs>
        <style>
            .cls-1{fill:#fff;stroke:#fff;stroke-width:.5px}
        </style>
    </defs>
    <g id="speak" transform="translate(.25 4.25)">
        <path id="Path_1001" d="M38.848 8.593a.774.774 0 0 0-.774.774v2.758a2.874 2.874 0 0 1-2.87 2.87h-4.411a.774.774 0 0 0-.547.226L24.9 20.569v-4.8a.774.774 0 0 0-.774-.774H13.044a2.874 2.874 0 0 1-2.87-2.87V.418a2.874 2.874 0 0 1 2.87-2.87H35.2a2.874 2.874 0 0 1 2.87 2.87v2.757a.774.774 0 1 0 1.548 0V.418A4.423 4.423 0 0 0 35.2-4H13.044A4.423 4.423 0 0 0 8.626.418v9.942H2.994A3 3 0 0 0 0 13.354v7.131a3 3 0 0 0 2.994 2.994H5.36l3.84 3.835a.774.774 0 0 0 1.321-.547v-3.289h5.976a3 3 0 0 0 2.994-2.994v-3.942h3.859v5.895a.774.774 0 0 0 1.321.547l6.442-6.442H35.2a4.423 4.423 0 0 0 4.418-4.418V9.366a.774.774 0 0 0-.77-.773zM17.939 20.485a1.447 1.447 0 0 1-1.446 1.446h-6.75a.774.774 0 0 0-.774.774V24.9l-2.741-2.743a.774.774 0 0 0-.547-.227H2.994a1.447 1.447 0 0 1-1.446-1.446v-7.13a1.448 1.448 0 0 1 1.446-1.446h5.632v.217a4.423 4.423 0 0 0 4.418 4.418h4.895zm0 0" class="cls-1" data-name="Path 1001"/>
        <path id="Path_1002" d="M271.157 77.914h-15.09a.774.774 0 1 0 0 1.548h15.09a.774.774 0 0 0 0-1.548zm0 0" class="cls-1" data-name="Path 1002" transform="translate(-239.488 -76.843)"/>
        <path id="Path_1003" d="M271.931 146.192a.774.774 0 0 0-.774-.774h-15.09a.774.774 0 1 0 0 1.548h15.09a.774.774 0 0 0 .774-.774zm0 0" class="cls-1" data-name="Path 1003" transform="translate(-239.488 -140.168)"/>
        <path id="Path_1004" d="M256.067 212.918a.774.774 0 1 0 0 1.548h8.706a.774.774 0 1 0 0-1.548zm0 0" class="cls-1" data-name="Path 1004" transform="translate(-239.488 -203.489)"/>
        <path id="Path_1005" d="M615.774 149.4a.774.774 0 1 0 .774.774.776.776 0 0 0-.774-.774zm0 0" class="cls-1" data-name="Path 1005" transform="translate(-576.926 -143.905)"/>
    </g>
</svg>
