<svg xmlns="http://www.w3.org/2000/svg" width="51.195" height="45.42" viewBox="0 0 51.195 45.42">
    <defs>
        <style>
            .cls-1{fill:#ffffff}
        </style>
    </defs>
    <g id="save-money" transform="translate(-.36 -106.492)">
        <path id="Path_7300" d="M190.188 161.2a.907.907 0 0 0-.327-.011 2.167 2.167 0 0 1-1.917-2.149.953.953 0 1 0-1.906 0 4.078 4.078 0 0 0 3 3.926v.953a.953.953 0 1 0 1.906 0v-.9a4.07 4.07 0 0 0-.834-8.054 2.164 2.164 0 1 1 2.164-2.164.953.953 0 0 0 1.906 0 4.078 4.078 0 0 0-3.236-3.984v-.868a.953.953 0 0 0-1.906 0v.926a4.07 4.07 0 0 0 1.072 8 2.163 2.163 0 0 1 .079 4.324zm0 0" class="cls-1" data-name="Path 7300" transform="translate(-163.556 -35.682)"/>
        <path id="Path_7301" d="M104.2 120.314a13.821 13.821 0 1 0 13.821-13.822 13.821 13.821 0 0 0-13.821 13.822zm13.817-11.914a11.915 11.915 0 1 1-11.917 11.914 11.915 11.915 0 0 1 11.917-11.914zm0 0" class="cls-1" data-name="Path 7301" transform="translate(-91.464)"/>
        <path id="Path_7302" d="M45.073 330.154l-7.466 3.528a6.081 6.081 0 0 0-5.185-3.2l-6.893-.189a7.28 7.28 0 0 1-3.133-.809l-.7-.363a12.371 12.371 0 0 0-11.459.012l.044-1.589a.953.953 0 0 0-.927-.979l-7.554-.208a.953.953 0 0 0-.979.927l-.46 16.585a.953.953 0 0 0 .927.979l7.558.208h.026a.953.953 0 0 0 .953-.927l.022-.794 1.964-1.051a3.368 3.368 0 0 1 2.514-.275l11.724 3.291.062.015a12.549 12.549 0 0 0 2.577.266A12.717 12.717 0 0 0 34 344.422a.89.89 0 0 0 .118-.065l17-11a.954.954 0 0 0 .312-1.27 4.815 4.815 0 0 0-6.357-1.933zM2.292 342.969l.4-14.681 5.652.155-.4 14.681zm30.849-.249a10.806 10.806 0 0 1-6.609.738l-11.694-3.282a5.27 5.27 0 0 0-3.929.43l-1 .538.269-9.761a10.477 10.477 0 0 1 10.644-.568l.7.363a9.205 9.205 0 0 0 3.957 1.022l6.893.189a4.181 4.181 0 0 1 3.973 3.331l-10.267-.283a.953.953 0 0 0-.053 1.906l11.331.312h.027a.953.953 0 0 0 .952-.927 6.049 6.049 0 0 0-.092-1.237l7.658-3.618.022-.011a2.912 2.912 0 0 1 3.293.461zm0 0" class="cls-1" data-name="Path 7302" transform="translate(0 -193.669)"/>
    </g>
</svg>
