<svg xmlns="http://www.w3.org/2000/svg" width="49.064" height="51.134" viewBox="0 0 49.064 51.134">
    <defs>
        <style>
            .cls-1{fill:#b9203b}
        </style>
    </defs>
    <g id="discount" transform="translate(-10.359 .002)">
        <g id="Group_2458" data-name="Group 2458" transform="translate(10.359 -.002)">
            <g id="Group_2457" data-name="Group 2457">
                <path id="Path_7284" d="M57.058 26.227a1.5 1.5 0 0 1 0-1.325L58.965 21a4.439 4.439 0 0 0-1.915-5.895l-3.836-2.035a1.5 1.5 0 0 1-.779-1.07l-.75-4.277a4.439 4.439 0 0 0-5.014-3.643l-4.3.608a1.5 1.5 0 0 1-1.26-.409l-3.121-3.02a4.439 4.439 0 0 0-6.2 0l-3.121 3.02a1.5 1.5 0 0 1-1.26.409l-4.3-.608A4.439 4.439 0 0 0 18.1 7.723L17.347 12a1.5 1.5 0 0 1-.778 1.072l-3.836 2.035A4.439 4.439 0 0 0 10.818 21l1.907 3.9a1.5 1.5 0 0 1 0 1.325l-1.907 3.9a4.439 4.439 0 0 0 1.915 5.895l3.836 2.035a1.5 1.5 0 0 1 .779 1.071l.75 4.277a4.436 4.436 0 0 0 4.375 3.697 4.561 4.561 0 0 0 .639-.045l4.3-.608a1.5 1.5 0 0 1 1.26.409l3.121 3.019a4.439 4.439 0 0 0 6.2 0l3.121-3.019a1.5 1.5 0 0 1 1.26-.409l4.3.608a4.438 4.438 0 0 0 5.014-3.643l.75-4.277a1.5 1.5 0 0 1 .778-1.072l3.836-2.035a4.439 4.439 0 0 0 1.915-5.895zm-1.39 7.191l-3.836 2.035a4.429 4.429 0 0 0-2.3 3.167l-.752 4.28a1.5 1.5 0 0 1-1.7 1.233l-4.3-.608a4.428 4.428 0 0 0-3.723 1.21l-3.117 3.016a1.5 1.5 0 0 1-2.1 0l-3.121-3.019a4.424 4.424 0 0 0-3.089-1.255 4.526 4.526 0 0 0-.635.045l-4.3.608A1.5 1.5 0 0 1 21 42.9l-.75-4.277a4.428 4.428 0 0 0-2.3-3.167l-3.836-2.035a1.5 1.5 0 0 1-.648-1.994l1.907-3.9a4.429 4.429 0 0 0 0-3.915l-1.907-3.9a1.5 1.5 0 0 1 .648-1.994l3.836-2.035a4.429 4.429 0 0 0 2.3-3.167L21 8.232A1.5 1.5 0 0 1 22.7 7l4.3.608A4.429 4.429 0 0 0 30.721 6.4l3.121-3.019a1.5 1.5 0 0 1 2.1 0L39.061 6.4a4.428 4.428 0 0 0 3.723 1.21L47.083 7a1.5 1.5 0 0 1 1.7 1.233l.75 4.277a4.428 4.428 0 0 0 2.3 3.167l3.836 2.035a1.5 1.5 0 0 1 .648 1.994l-1.907 3.9a4.429 4.429 0 0 0 0 3.915l1.907 3.9a1.5 1.5 0 0 1-.65 1.997z" class="cls-1" data-name="Path 7284" transform="translate(-10.359 .002)"/>
            </g>
        </g>
        <g id="Group_2460" data-name="Group 2460" transform="translate(23.685 14.359)">
            <g id="Group_2459" data-name="Group 2459">
                <path id="Path_7285" d="M165.772 144.223a1.475 1.475 0 0 0-2.085 0l-19.463 19.464a1.475 1.475 0 1 0 2.085 2.085l19.463-19.463a1.474 1.474 0 0 0 0-2.086z" class="cls-1" data-name="Path 7285" transform="translate(-143.792 -143.792)"/>
            </g>
        </g>
        <g id="Group_2462" data-name="Group 2462" transform="translate(23.586 12.294)">
            <g id="Group_2461" data-name="Group 2461">
                <path id="Path_7286" d="M148.209 123.116a5.407 5.407 0 1 0 5.407 5.407 5.413 5.413 0 0 0-5.407-5.407zm0 7.864a2.458 2.458 0 1 1 2.458-2.458 2.46 2.46 0 0 1-2.458 2.458z" class="cls-1" data-name="Path 7286" transform="translate(-142.802 -123.116)"/>
            </g>
        </g>
        <g id="Group_2464" data-name="Group 2464" transform="translate(35.383 28.023)">
            <g id="Group_2463" data-name="Group 2463">
                <path id="Path_7287" d="M266.329 280.61a5.407 5.407 0 1 0 5.407 5.407 5.413 5.413 0 0 0-5.407-5.407zm0 7.864a2.458 2.458 0 1 1 2.458-2.458 2.46 2.46 0 0 1-2.458 2.458z" class="cls-1" data-name="Path 7287" transform="translate(-260.922 -280.61)"/>
            </g>
        </g>
    </g>
</svg>
