<svg xmlns="http://www.w3.org/2000/svg" width="26.956" height="17.947" viewBox="0 0 26.956 17.947">
    <path id="prefix__paper-plane" d="M26.949 10.556c0-.011 0-.022.006-.032a.473.473 0 000-.1v-.025a.45.45 0 00-.045-.13c0-.007-.009-.014-.013-.021l-.009-.015a.443.443 0 00-.1-.1l-.027-.016a.43.43 0 00-.106-.052.387.387 0 00-.05-.011.434.434 0 00-.1-.009.421.421 0 00-.053 0h-.035L.358 15.425a.449.449 0 00-.119.837L7.7 20.2l1.309 7.265v.017a.422.422 0 000 .106.414.414 0 00.009.053.433.433 0 00.049.12c0 .007 0 .016.009.023l.005.006c.006.009.014.015.021.024a.459.459 0 00.068.07l.011.011c.004.003.014.006.021.011a.457.457 0 00.086.044c.012 0 .023.01.036.013a.45.45 0 00.124.02h.03a.446.446 0 00.32-.141l4.972-3.315 5.21 3.383a.449.449 0 00.666-.222l6.281-17.05a.411.411 0 00.015-.047v-.02c0-.007.006-.01.007-.015zm-5.2 2.865l-10.766 7.917a.437.437 0 00-.047.044.185.185 0 00-.017.016l-.026.032-.022.033a.459.459 0 00-.041.084c0 .006-.006.01-.008.016l-1.236 4.016-.978-5.426zM10.281 26.443L11.5 22.4l1.9 1.238.545.354-1.845 1.236zm13.077-14.854L8.11 19.4l-6.346-3.349zM20 26.851l-6.914-4.493-1.047-.681 13.533-9.951z" transform="translate(0 -10.035)" style="fill:#fff"/>
</svg>
